<svg width="262" height="250" viewBox="0 0 262 250" fill="none" xmlns="http://www.w3.org/2000/svg">
<path d="M212.299 114.66C212.575 135.654 206.62 156.259 195.186 173.868C183.753 191.477 167.354 205.3 148.064 213.589C128.774 221.878 107.459 224.261 86.8144 220.436C66.1702 216.611 47.1239 206.75 32.084 192.1C17.0442 177.45 6.68643 158.669 2.3205 138.133C-2.04542 117.596 -0.223377 96.2257 7.55622 76.7246C15.3358 57.2235 28.7235 40.4673 46.0264 28.575C63.3292 16.6827 83.77 10.1884 104.764 9.91345C132.914 9.54397 160.058 20.3722 180.225 40.016C200.392 59.6598 211.929 86.5102 212.299 114.66Z" fill="#3B564D"/>
<path d="M40.845 249.418C31.8382 249.413 23.1954 245.863 16.7865 239.535C10.3775 233.206 6.71778 224.609 6.59898 215.603L6.39898 200.418C6.28948 191.334 9.78846 182.577 16.128 176.07C22.4676 169.562 31.1299 165.836 40.214 165.708L173.388 163.951C182.442 163.995 191.143 167.469 197.737 173.673C200.97 176.806 203.55 180.548 205.329 184.683C207.107 188.819 208.049 193.266 208.099 197.767L208.293 212.952C208.355 217.452 207.529 221.921 205.862 226.101C204.196 230.282 201.721 234.093 198.581 237.317C195.44 240.541 191.695 243.114 187.559 244.889C183.423 246.664 178.978 247.606 174.478 247.662L41.309 249.41L40.845 249.418ZM173.845 180.842H173.617L40.423 182.599C35.8178 182.664 31.4267 184.554 28.2139 187.854C25.001 191.154 23.229 195.594 23.287 200.199L23.487 215.375C23.5096 217.658 23.9853 219.914 24.8865 222.012C25.7877 224.11 27.0965 226.008 28.737 227.596C32.0448 230.798 36.4809 232.567 41.084 232.52L174.266 230.772C176.546 230.743 178.798 230.264 180.893 229.364C182.988 228.464 184.885 227.16 186.476 225.527C188.067 223.893 189.321 221.963 190.165 219.845C191.01 217.727 191.429 215.463 191.399 213.183L191.205 197.983C191.144 193.417 189.288 189.058 186.037 185.85C182.787 182.642 178.404 180.844 173.837 180.843" fill="white"/>
<path d="M98.4572 142.923C89.4522 142.911 80.8132 139.358 74.4047 133.031C67.9962 126.705 64.3321 118.113 64.2032 109.108L63.9672 90.9935C63.8601 81.9115 67.3587 73.1577 73.6958 66.6512C80.033 60.1448 88.6916 56.4167 97.7732 56.2845L112.958 56.0845H113.414C122.419 56.0969 131.059 59.6489 137.469 65.9743C143.878 72.2996 147.545 80.8912 147.676 89.8955L147.912 108.002C148.02 117.085 144.521 125.84 138.184 132.348C131.848 138.856 123.189 142.586 114.106 142.72L98.9062 142.914L98.4582 142.922M113.416 72.9755H113.19L98.0052 73.1755C93.4001 73.2429 89.0096 75.1334 85.796 78.4325C82.5824 81.7316 80.8078 86.1702 80.8612 90.7755L81.0902 108.884C81.154 113.45 83.0111 117.808 86.2605 121.017C89.5099 124.225 93.8908 126.027 98.4572 126.032L98.6932 126.024L113.89 125.83C118.496 125.768 122.889 123.879 126.102 120.578C129.315 117.278 131.087 112.836 131.026 108.23L130.79 90.1145C130.723 85.5485 128.863 81.1921 125.612 77.985C122.362 74.7779 117.981 72.9773 113.414 72.9715" fill="white"/>
<path d="M201.322 108.564L156.984 53.4903C155.619 51.7408 154.998 49.5245 155.254 47.3205C155.51 45.1164 156.623 43.1017 158.353 41.7119C160.082 40.322 162.289 39.6685 164.497 39.8928C166.704 40.1171 168.735 41.201 170.15 42.9103L199.472 79.3353L245.829 4.02031C246.409 3.07598 247.17 2.25524 248.068 1.60496C248.966 0.954686 249.983 0.487605 251.061 0.230387C252.139 -0.0268317 253.258 -0.0691494 254.352 0.105849C255.447 0.280848 256.496 0.669737 257.441 1.25031C258.385 1.83088 259.206 2.59177 259.856 3.48954C260.506 4.3873 260.973 5.40435 261.231 6.48263C261.488 7.5609 261.53 8.67928 261.355 9.77391C261.18 10.8685 260.791 11.918 260.211 12.8623L201.322 108.564Z" fill="white"/>
</svg>
