<svg xmlns="http://www.w3.org/2000/svg" width="234.922" height="266.003" viewBox="0 0 234.922 266.003"><g transform="translate(17494.008 767.521)"><path d="M230.922,115.456A115.461,115.461,0,1,1,115.466,0,115.458,115.458,0,0,1,230.922,115.456" transform="translate(-17490.008 -767.52)" fill="#979b8a"/><path d="M111.8,173.772l-9.6-1.709C-20.276,150.073,1.642,17.622,1.871,16.281L3.4,7.665l8.681,1.1C128.24,23.5,113.111,162.694,112.946,164.09ZM18.874,28.508c-2.287,26.62-1.736,103.184,76.444,123.274.34-11.951-.22-32.885-6.246-54.187C78.159,59.115,54.57,35.9,18.874,28.508" transform="translate(-17492.289 -704.776)" fill="#fff"/><path d="M27.244,107.88A16.608,16.608,0,0,1,10.618,90.767l.184-5.254a65.277,65.277,0,0,1,4.134-22.1C31.828,20.817,82.221,16.656,84.371,16.5l7.725-.57,1.856,7.542c.147.606,14.146,61.407-62.059,83.738a16.441,16.441,0,0,1-4.648.671m-.505-18.3h0ZM76.848,36.341c-12.8,2.949-35.889,11.28-44.827,33.841a47.4,47.4,0,0,0-2.857,15.947l-.1,2.737C70.592,75.831,76.682,49.853,76.848,36.341" transform="translate(-17407.164 -637.12)" fill="#fff"/><path d="M53.88,74.093H36.2A24.655,24.655,0,0,1,11.57,49.457V31.774A24.653,24.653,0,0,1,36.2,7.147H53.88A24.653,24.653,0,0,1,78.507,31.774V49.457A24.655,24.655,0,0,1,53.88,74.093M36.2,25.519a6.269,6.269,0,0,0-6.256,6.256V49.457A6.271,6.271,0,0,0,36.2,55.722H53.88a6.265,6.265,0,0,0,6.256-6.265V31.774a6.263,6.263,0,0,0-6.256-6.256Z" transform="translate(-17399.301 -709.016)" fill="#fff"/><rect width="142.711" height="18.372" transform="translate(-17460.664 -519.89)" fill="#fff"/><rect width="230.922" height="266.003" transform="translate(-17494.008 -767.521)" fill="none"/></g></svg>