<svg width="241" height="203" viewBox="0 0 241 203" fill="none" xmlns="http://www.w3.org/2000/svg">
<path d="M240.31 83.5953C240.531 100.348 235.778 116.79 226.654 130.842C217.53 144.894 204.444 155.925 189.05 162.539C173.657 169.154 156.648 171.055 140.174 168.002C123.7 164.95 108.502 157.081 96.5 145.39C84.4984 133.7 76.233 118.713 72.7491 102.325C69.2652 85.9367 70.7193 68.8835 76.9273 53.3218C83.1354 37.7602 93.8187 24.3889 107.626 14.899C121.434 5.40905 137.745 0.226708 154.498 0.00729968C176.962 -0.287434 198.623 8.35351 214.716 24.0293C230.808 39.705 240.015 61.1315 240.31 83.5953Z" fill="#979B8A"/>
<path d="M114.32 73.1163C107.133 73.1127 100.235 70.2793 95.1209 65.2292C90.0063 60.179 87.0858 53.3183 86.9912 46.1313L86.8022 31.6823C86.7061 24.4328 89.4936 17.442 94.5516 12.2477C99.6096 7.05338 106.524 4.08096 113.773 3.98427L125.904 3.82227H126.275C133.46 3.83516 140.351 6.67148 145.463 11.7195C150.575 16.7675 153.499 23.6226 153.602 30.8063L153.791 45.2553C153.839 48.8455 153.179 52.41 151.849 55.7452C150.519 59.0804 148.546 62.121 146.04 64.6932C143.535 67.2655 140.548 69.3191 137.249 70.7367C133.95 72.1543 130.404 72.9082 126.814 72.9553L114.683 73.1173L114.32 73.1163ZM126.268 17.3033H126.086L113.955 17.4653C110.281 17.5153 106.778 19.0216 104.214 21.6532C101.65 24.2848 100.236 27.8265 100.281 31.5003L100.47 45.9553C100.489 47.7772 100.87 49.5772 101.589 51.2512C102.309 52.9251 103.353 54.4397 104.662 55.7073C105.954 56.9924 107.492 58.0029 109.184 58.6782C110.876 59.3534 112.687 59.6793 114.508 59.6363L126.639 59.4743C128.459 59.4508 130.256 59.069 131.928 58.3508C133.6 57.6326 135.114 56.592 136.384 55.2885C137.654 53.9849 138.654 52.444 139.328 50.7537C140.002 49.0634 140.337 47.2568 140.312 45.4373L140.12 30.9813C140.067 27.3398 138.586 23.8648 135.995 21.3058C133.403 18.7467 129.91 17.3085 126.268 17.3013" fill="white"/>
<path d="M127.029 149.499H27.341C20.0912 149.491 13.1409 146.606 8.01517 141.479C2.88943 136.352 0.00688066 129.401 0 122.151L0 110.033C0.00846903 102.785 2.89175 95.8353 8.01735 90.7097C13.1429 85.5841 20.0923 82.7009 27.341 82.6924H127.029C134.278 82.7003 141.229 85.5832 146.356 90.7087C151.483 95.8342 154.367 102.784 154.377 110.033V122.151C154.369 129.402 151.485 136.353 146.358 141.48C141.231 146.607 134.28 149.491 127.029 149.499ZM27.341 96.1714C23.666 96.1761 20.1429 97.6381 17.5443 100.237C14.9457 102.835 13.4838 106.358 13.479 110.033V122.151C13.4819 125.828 14.943 129.353 17.5418 131.953C20.1405 134.554 23.6646 136.017 27.341 136.022H127.029C130.707 136.019 134.233 134.557 136.834 131.956C139.434 129.356 140.897 125.829 140.9 122.151V110.033C140.895 106.357 139.432 102.833 136.832 100.234C134.231 97.6349 130.706 96.1736 127.03 96.1704L27.341 96.1714Z" fill="white"/>
<path d="M197.475 202.821H97.7873C90.5384 202.813 83.5889 199.929 78.4633 194.803C73.3377 189.678 70.4545 182.728 70.4463 175.479V163.355C70.4548 156.106 73.338 149.157 78.4636 144.032C83.5892 138.906 90.5386 136.023 97.7873 136.014H197.475C204.725 136.022 211.675 138.905 216.802 144.03C221.929 149.156 224.813 156.106 224.823 163.355V175.479C224.813 182.729 221.929 189.678 216.802 194.804C211.675 199.929 204.725 202.813 197.475 202.821ZM97.7873 149.493C94.1123 149.498 90.5892 150.96 87.9906 153.559C85.392 156.157 83.9301 159.68 83.9253 163.355V175.479C83.9298 179.154 85.3917 182.678 87.9903 185.276C90.5889 187.875 94.1121 189.337 97.7873 189.342H197.475C201.152 189.339 204.677 187.878 207.277 185.279C209.877 182.68 211.34 179.156 211.345 175.479V163.355C211.34 159.679 209.877 156.155 207.277 153.556C204.677 150.957 201.152 149.495 197.475 149.492L97.7873 149.493Z" fill="white"/>
</svg>
