<svg width="190" height="160" viewBox="0 0 190 160" fill="none" xmlns="http://www.w3.org/2000/svg">
<path d="M189.337 65.8618C189.51 79.0609 185.766 92.0151 178.578 103.086C171.39 114.158 161.079 122.848 148.952 128.06C136.824 133.272 123.423 134.77 110.443 132.365C97.4641 129.961 85.4893 123.761 76.0333 114.551C66.5773 105.34 60.065 93.5329 57.3197 80.6213C54.5744 67.7097 55.7195 54.274 60.6103 42.0132C65.501 29.7524 73.9177 19.2173 84.796 11.74C95.6742 4.26274 108.525 0.179201 121.725 0.00578612C130.488 -0.109617 139.189 1.50227 147.33 4.7494C155.47 7.99654 162.892 12.8153 169.17 18.9307C175.448 25.046 180.461 32.338 183.921 40.3905C187.381 48.443 189.221 57.0981 189.337 65.8618Z" fill="#979B8A"/>
<path d="M90.0676 57.6062C84.4046 57.6033 78.9704 55.3707 74.9409 51.3916C70.9115 47.4125 68.6108 42.0068 68.5366 36.3442L68.3876 24.9602C68.3121 19.2486 70.5084 13.7409 74.4935 9.64853C78.4786 5.55617 83.926 3.21437 89.6376 3.13823L99.1956 3.01123H99.4876C105.148 3.02114 110.578 5.2557 114.606 9.23291C118.634 13.2101 120.937 18.6112 121.019 24.2712L121.168 35.6552C121.205 38.4838 120.685 41.2921 119.637 43.9198C118.589 46.5474 117.034 48.9428 115.06 50.9693C113.087 52.9958 110.733 54.6137 108.134 55.7305C105.535 56.8473 102.741 57.4412 99.9126 57.4782L90.3546 57.6052L90.0676 57.6062ZM99.4816 13.6302H99.3386L89.7806 13.7572C86.8855 13.7965 84.1244 14.9836 82.1042 17.0577C80.0839 19.1318 78.9698 21.9231 79.0066 24.8182L79.1556 36.2072C79.1704 37.6424 79.4697 39.0605 80.0362 40.3792C80.6026 41.698 81.425 42.8914 82.4556 43.8902C83.4727 44.9036 84.6844 45.7007 86.0177 46.2334C87.3509 46.7662 88.7782 47.0236 90.2136 46.9902L99.7716 46.8632C101.205 46.8448 102.621 46.5441 103.939 45.9783C105.256 45.4124 106.449 44.5925 107.45 43.5654C108.45 42.5383 109.238 41.3241 109.77 39.9922C110.301 38.6604 110.564 37.2369 110.545 35.8032L110.396 24.4142C110.356 21.544 109.189 18.8046 107.147 16.7871C105.105 14.7696 102.352 13.6357 99.4816 13.6302Z" fill="#3B564D"/>
<path d="M100.083 117.786H21.542C15.8299 117.779 10.3537 115.507 6.31505 111.467C2.27643 107.428 0.00529327 101.951 0 96.2389L0 86.6929C0.00635241 80.9815 2.27799 75.5059 6.31652 71.4674C10.3551 67.4289 15.8307 65.1572 21.542 65.1509H100.084C105.796 65.1575 111.271 67.4291 115.311 71.4674C119.35 75.5058 121.622 80.9812 121.63 86.6929V96.2399C121.623 101.952 119.351 107.429 115.312 111.469C111.272 115.508 105.796 117.779 100.083 117.786ZM21.542 75.7699C18.6461 75.7733 15.8698 76.9252 13.8221 78.973C11.7744 81.0207 10.6224 83.797 10.619 86.6929V96.2399C10.6216 99.1364 11.7732 101.914 13.821 103.962C15.8687 106.011 18.6455 107.163 21.542 107.167H100.084C102.981 107.164 105.759 106.012 107.807 103.963C109.856 101.915 111.008 99.137 111.011 96.2399V86.6929C111.007 83.7965 109.854 81.02 107.806 78.9725C105.757 76.9249 102.98 75.7735 100.084 75.7709L21.542 75.7699Z" fill="#3B564D"/>
<path d="M155.585 159.796H77.044C71.3328 159.79 65.8573 157.518 61.8188 153.48C57.7803 149.442 55.5086 143.966 55.502 138.255V128.703C55.5083 122.992 57.7799 117.516 61.8185 113.478C65.857 109.439 71.3326 107.167 77.044 107.161H155.586C161.298 107.167 166.774 109.439 170.813 113.477C174.853 117.516 177.125 122.991 177.133 128.703V138.255C177.125 143.967 174.853 149.443 170.813 153.481C166.774 157.519 161.298 159.791 155.586 159.797M77.044 117.779C74.1479 117.783 71.3714 118.935 69.3237 120.983C67.2759 123.03 66.1241 125.807 66.121 128.703V138.255C66.1241 141.151 67.2759 143.928 69.3237 145.976C71.3714 148.024 74.1479 149.176 77.044 149.179H155.586C158.482 149.176 161.259 148.025 163.308 145.978C165.356 143.93 166.509 141.153 166.513 138.257V128.703C166.51 125.806 165.357 123.029 163.308 120.981C161.259 118.933 158.482 117.782 155.585 117.779H77.044Z" fill="#3B564D"/>
</svg>
