<svg width="186" height="186" viewBox="0 0 186 186" fill="none" xmlns="http://www.w3.org/2000/svg">
<path d="M92.5325 185.064C74.2314 185.064 56.3412 179.637 41.1244 169.47C25.9076 159.302 14.0476 144.85 7.04404 127.942C0.0405087 111.034 -1.79194 92.4293 1.77843 74.4799C5.34879 56.5304 14.1616 40.0428 27.1024 27.102C40.0433 14.1611 56.5309 5.34831 74.4804 1.77794C92.4298 -1.79243 111.035 0.0400205 127.943 7.04355C144.851 14.0471 159.302 25.9071 169.47 41.1239C179.638 56.3408 185.064 74.2309 185.064 92.532C185.037 117.064 175.279 140.584 157.932 157.931C140.585 175.278 117.065 185.036 92.5325 185.064ZM92.5325 8.99997C76.0114 8.99997 59.8613 13.899 46.1246 23.0777C32.3878 32.2563 21.6813 45.3022 15.3589 60.5657C9.03661 75.8291 7.3824 92.6246 10.6055 108.828C13.8286 125.032 21.7843 139.916 33.4664 151.598C45.1486 163.28 60.0325 171.236 76.2362 174.459C92.4398 177.682 109.235 176.028 124.499 169.705C139.762 163.383 152.808 152.677 161.987 138.94C171.165 125.203 176.064 109.053 176.064 92.532C176.039 70.3856 167.231 49.1535 151.571 33.4937C135.911 17.8339 114.679 9.02511 92.5325 8.99997Z" fill="#3B564D"/>
<path d="M92.5332 52.8191C93.4232 52.8191 94.2932 53.083 95.0332 53.5775C95.7733 54.0719 96.3501 54.7747 96.6907 55.597C97.0313 56.4193 97.1204 57.3241 96.9467 58.197C96.7731 59.0699 96.3445 59.8717 95.7152 60.5011L63.6842 92.5321L95.7152 124.563C96.5591 125.407 97.0332 126.552 97.0332 127.745C97.0332 128.336 96.9168 128.921 96.6906 129.467C96.4645 130.013 96.133 130.509 95.7152 130.927C95.2973 131.345 94.8012 131.676 94.2552 131.903C93.7093 132.129 93.1241 132.245 92.5332 132.245C91.3397 132.245 90.1951 131.771 89.3512 130.927L54.1382 95.7141C53.7203 95.2962 53.3888 94.8001 53.1627 94.2542C52.9365 93.7082 52.8201 93.123 52.8201 92.5321C52.8201 91.9411 52.9365 91.356 53.1627 90.81C53.3888 90.264 53.7203 89.768 54.1382 89.3501L89.3512 54.1371C89.7686 53.7186 90.2646 53.3867 90.8106 53.1605C91.3567 52.9344 91.9421 52.8183 92.5332 52.8191Z" fill="#3B564D"/>
<path d="M57.3201 88.0317L127.746 88.0317C128.94 88.0317 130.084 88.5058 130.928 89.3498C131.772 90.1937 132.246 91.3383 132.246 92.5317C132.246 93.7252 131.772 94.8698 130.928 95.7137C130.084 96.5576 128.94 97.0317 127.746 97.0317L57.3201 97.0317C56.1266 97.0317 54.982 96.5576 54.1381 95.7137C53.2942 94.8698 52.8201 93.7252 52.8201 92.5317C52.8201 91.3383 53.2942 90.1937 54.1381 89.3498C54.982 88.5058 56.1266 88.0317 57.3201 88.0317Z" fill="#3B564D"/>
</svg>
