<svg width="236" height="209" viewBox="0 0 236 209" fill="none" xmlns="http://www.w3.org/2000/svg">
<path d="M132.435 208.625C111.804 208.897 91.5568 203.044 74.2524 191.808C56.948 180.572 43.3641 164.457 35.2186 145.501C27.0731 126.545 24.7318 105.599 28.4908 85.3116C32.2497 65.0247 41.9401 46.308 56.3365 31.5286C70.733 16.7491 89.1888 6.57059 109.37 2.28028C129.551 -2.01003 150.552 -0.219457 169.715 7.42555C188.879 15.0706 205.345 28.2266 217.031 45.23C228.718 62.2335 235.1 82.3205 235.37 102.951C235.733 130.614 225.092 157.288 205.788 177.106C186.484 196.924 160.098 208.261 132.435 208.625Z" fill="#979B8A"/>
<path d="M0.000282288 40.1382C0.00450702 31.287 3.49349 22.7933 9.71235 16.4949C15.9312 10.1965 24.3798 6.59987 33.2303 6.48317L48.1523 6.28317C57.0792 6.1766 65.6838 9.61537 72.0784 15.845C78.4731 22.0747 82.1355 30.5866 82.2623 39.5132L83.9883 170.383C83.9457 179.28 80.5324 187.83 74.4363 194.31C71.358 197.488 67.6805 200.024 63.6164 201.772C59.5524 203.52 55.1821 204.446 50.7583 204.495L35.8363 204.686C31.4139 204.747 27.0229 203.935 22.9145 202.297C18.8061 200.66 15.0608 198.228 11.8928 195.142C8.72481 192.056 6.19629 188.375 4.45183 184.311C2.70737 180.247 1.7812 175.879 1.72628 171.456L0.00827789 40.5952L0.000282288 40.1382ZM67.3903 170.839V170.615L65.6633 39.7232C65.5993 35.1978 63.7421 30.8827 60.4994 27.7254C57.2568 24.5681 52.8938 22.8265 48.3683 22.8832L33.4543 23.0832C31.2111 23.1048 28.9945 23.5715 26.9331 24.4562C24.8716 25.3409 23.0063 26.6261 21.4453 28.2372C18.2999 31.488 16.5618 35.847 16.6073 40.3702L18.3253 171.248C18.3545 173.489 18.8249 175.702 19.7095 177.76C20.5942 179.819 21.8758 181.684 23.4811 183.247C25.0865 184.81 26.9841 186.042 29.0656 186.872C31.1471 187.702 33.3717 188.113 35.6123 188.083L50.5423 187.892C55.0284 187.833 59.311 186.01 62.4635 182.818C65.6161 179.626 67.3853 175.321 67.3883 170.834" fill="white"/>
<path d="M104.653 93.3389C104.665 84.4889 108.156 75.9984 114.373 69.7C120.59 63.4015 129.034 59.8004 137.883 59.6739L155.685 59.4389C164.611 59.3336 173.214 62.7722 179.608 69.0005C186.002 75.2289 189.665 83.7386 189.794 92.6639L189.994 107.586V108.034C189.982 116.884 186.491 125.375 180.274 131.674C174.057 137.973 165.613 141.575 156.764 141.704L138.97 141.939C130.044 142.045 121.439 138.607 115.044 132.378C108.648 126.15 104.983 117.64 104.852 108.714L104.661 93.7749L104.653 93.3349M173.394 108.034V107.81L173.194 92.8879C173.128 88.3627 171.271 84.0483 168.029 80.89C164.788 77.7318 160.427 75.9873 155.901 76.0389L138.107 76.2709C133.619 76.3326 129.336 78.1573 126.182 81.3509C123.028 84.5445 121.257 88.8506 121.252 93.3389L121.26 93.5709L121.451 108.501C121.513 113.027 123.37 117.343 126.613 120.5C129.856 123.657 134.22 125.398 138.746 125.339L156.546 125.107C161.033 125.041 165.314 123.214 168.466 120.02C171.617 116.826 173.388 112.521 173.394 108.034Z" fill="white"/>
</svg>
