<svg width="280" height="285" viewBox="0 0 280 285" fill="none" xmlns="http://www.w3.org/2000/svg">
<path d="M279.897 107.632C279.899 128.921 273.587 149.733 261.76 167.435C249.933 185.137 233.122 198.935 213.454 207.083C193.785 215.231 172.142 217.363 151.262 213.21C130.381 209.058 111.201 198.806 96.147 183.752C81.0929 168.699 70.8409 149.519 66.6875 128.638C62.5341 107.758 64.6659 86.115 72.8132 66.4462C80.9605 46.7774 94.7575 29.9663 112.459 18.139C130.161 6.31163 150.973 -0.000791023 172.262 7.43485e-08C200.808 6.32605e-08 228.185 11.3397 248.371 31.5245C268.556 51.7093 279.896 79.0859 279.897 107.632Z" fill="#979B8A"/>
<path d="M150.081 284.952H43.3185C31.8341 284.937 20.8244 280.368 12.7044 272.246C4.58446 264.125 0.0172064 253.114 0.00450548 241.63V104.394C-0.0698835 101.431 0.778474 98.5174 2.43222 96.0573C4.08596 93.5972 6.46335 91.7118 9.23551 90.6619C12.2862 89.5744 15.5941 89.4333 18.7264 90.2569C21.8587 91.0805 24.6693 92.8305 26.7905 95.278C35.0115 104.518 48.4995 124.89 46.2815 157.516C46.223 158.645 45.9378 159.751 45.4431 160.768C44.9483 161.785 44.254 162.692 43.4015 163.435C42.549 164.178 41.5557 164.742 40.4808 165.093C39.4059 165.445 38.2713 165.576 37.1445 165.48C34.8801 165.322 32.7709 164.272 31.2794 162.561C29.788 160.85 29.036 158.617 29.1885 156.352C30.7215 133.942 23.3315 118.973 17.1315 110.538V241.638C17.1368 248.583 19.8971 255.242 24.8066 260.154C29.7161 265.066 36.3737 267.829 43.3185 267.838H150.081C157.027 267.832 163.688 265.07 168.6 260.158C173.512 255.246 176.275 248.585 176.281 241.638V120.725C176.275 113.778 173.512 107.117 168.6 102.205C163.688 97.293 157.027 94.5308 150.081 94.5249H52.3105C50.0393 94.5249 47.8612 93.6227 46.2552 92.0168C44.6492 90.4108 43.747 88.2326 43.747 85.9614C43.747 83.6903 44.6492 81.5121 46.2552 79.9061C47.8612 78.3002 50.0393 77.3979 52.3105 77.3979H150.081C161.567 77.4109 172.58 81.98 180.702 90.1027C188.824 98.2254 193.392 109.238 193.404 120.725V241.63C193.389 253.115 188.82 264.126 180.698 272.248C172.577 280.369 161.566 284.938 150.081 284.952Z" fill="white"/>
<path d="M96.6988 235.704C95.5741 235.705 94.4604 235.483 93.4212 235.053C92.3821 234.623 91.4379 233.992 90.6426 233.197C89.8473 232.402 89.2164 231.458 88.7861 230.419C88.3558 229.38 88.1345 228.266 88.1348 227.141V140.668C88.1591 138.413 89.0721 136.259 90.6754 134.672C92.2787 133.086 94.443 132.197 96.6983 132.197C98.9535 132.197 101.118 133.086 102.721 134.672C104.324 136.259 105.237 138.413 105.262 140.668V227.14C105.262 228.265 105.041 229.379 104.61 230.418C104.18 231.457 103.549 232.401 102.754 233.196C101.959 233.991 101.014 234.622 99.9753 235.052C98.9362 235.482 97.8224 235.704 96.6978 235.703" fill="white"/>
<path d="M139.931 192.476H53.4483C52.3237 192.476 51.2101 192.255 50.1712 191.824C49.1322 191.394 48.1882 190.763 47.393 189.968C46.5978 189.173 45.967 188.229 45.5366 187.19C45.1063 186.151 44.8848 185.037 44.8848 183.913C44.8848 182.788 45.1063 181.674 45.5366 180.636C45.967 179.597 46.5978 178.653 47.393 177.857C48.1882 177.062 49.1322 176.431 50.1712 176.001C51.2101 175.571 52.3237 175.349 53.4483 175.349H139.931C141.056 175.349 142.169 175.571 143.208 176.001C144.247 176.431 145.191 177.062 145.987 177.857C146.782 178.653 147.413 179.597 147.843 180.636C148.273 181.674 148.495 182.788 148.495 183.913C148.495 185.037 148.273 186.151 147.843 187.19C147.413 188.229 146.782 189.173 145.987 189.968C145.191 190.763 144.247 191.394 143.208 191.824C142.169 192.255 141.056 192.476 139.931 192.476Z" fill="white"/>
<path d="M154.831 94.7533C153.706 94.7537 152.592 94.5325 151.553 94.1023C150.514 93.6721 149.57 93.0414 148.774 92.2462C147.979 91.451 147.348 90.5068 146.918 89.4677C146.488 88.4286 146.266 87.3149 146.267 86.1903V60.8333C146.291 58.5781 147.204 56.4236 148.807 54.8375C150.411 53.2514 152.575 52.3618 154.83 52.3618C157.085 52.3618 159.25 53.2514 160.853 54.8375C162.456 56.4236 163.369 58.5781 163.394 60.8333V86.1893C163.394 87.3139 163.173 88.4276 162.742 89.4667C162.312 90.5058 161.681 91.45 160.886 92.2452C160.09 93.0404 159.146 93.6711 158.107 94.1013C157.068 94.5315 155.954 94.7527 154.83 94.7523" fill="white"/>
<path d="M51.7349 94.5492C50.6102 94.5496 49.4965 94.3284 48.4574 93.8982C47.4182 93.468 46.474 92.8373 45.6787 92.0421C44.8834 91.2469 44.2526 90.3027 43.8223 89.2636C43.392 88.2245 43.1706 87.1108 43.1709 85.9862V60.6292C43.1953 58.374 44.1082 56.2195 45.7115 54.6334C47.3149 53.0473 49.4791 52.1577 51.7344 52.1577C53.9897 52.1577 56.1539 53.0473 57.7573 54.6334C59.3606 56.2195 60.2735 58.374 60.2979 60.6292V85.9862C60.2982 87.1108 60.0768 88.2245 59.6465 89.2636C59.2162 90.3027 58.5854 91.2469 57.7901 92.0421C56.9948 92.8373 56.0506 93.468 55.0114 93.8982C53.9723 94.3284 52.8586 94.5496 51.7339 94.5492" fill="white"/>
</svg>
