<svg width="221" height="225" viewBox="0 0 221 225" fill="none" xmlns="http://www.w3.org/2000/svg">
<path d="M220.947 84.963C220.948 101.769 215.966 118.197 206.63 132.171C197.294 146.145 184.024 157.037 168.498 163.469C152.971 169.901 135.887 171.584 119.404 168.306C102.921 165.028 87.7803 156.935 75.8967 145.052C64.0131 133.169 55.9203 118.029 52.6416 101.546C49.3629 85.0633 51.0456 67.9784 57.477 52.4521C63.9084 36.9257 74.7995 23.6552 88.7731 14.3188C102.747 4.9824 119.175 -0.000593263 135.981 5.29776e-08C158.515 3.89314e-08 180.126 8.95134 196.06 24.8849C211.994 40.8185 220.946 62.4291 220.947 84.963Z" fill="#979B8A"/>
<path d="M118.472 224.936H34.1957C25.1296 224.924 16.4383 221.317 10.0283 214.906C3.61836 208.494 0.0131988 199.802 0.00367306 190.736V82.4081C-0.0560248 80.0682 0.613242 77.7677 1.91881 75.825C3.22437 73.8824 5.10163 72.3937 7.29067 71.5651C9.6995 70.7062 12.3115 70.5945 14.7849 71.2447C17.2582 71.8949 19.4776 73.2766 21.1527 75.2091C27.6427 82.5031 38.2887 98.5841 36.5387 124.339C36.4926 125.231 36.2675 126.104 35.877 126.907C35.4864 127.709 34.9383 128.425 34.2653 129.012C33.5923 129.599 32.8081 130.044 31.9595 130.321C31.1109 130.598 30.2152 130.702 29.3257 130.626C27.5381 130.501 25.8731 129.672 24.6958 128.322C23.5185 126.971 22.9251 125.208 23.0457 123.42C24.2557 105.73 18.4217 93.9141 13.5277 87.2561V190.739C13.5335 196.22 15.7131 201.476 19.5884 205.352C23.4637 209.229 28.7184 211.41 34.1997 211.417H118.476C123.958 211.411 129.214 209.23 133.09 205.354C136.967 201.477 139.147 196.221 139.153 190.739V95.2981C139.147 89.8152 136.966 84.5586 133.089 80.6819C129.211 76.8052 123.955 74.6251 118.472 74.6201H41.2937C40.3991 74.631 39.5112 74.4642 38.6816 74.1293C37.852 73.7945 37.097 73.2984 36.4606 72.6696C35.8241 72.0408 35.3188 71.292 34.9739 70.4665C34.629 69.641 34.4515 68.7552 34.4515 67.8606C34.4515 66.9659 34.629 66.0802 34.9739 65.2547C35.3188 64.4292 35.8241 63.6803 36.4606 63.0516C37.097 62.4228 37.852 61.9266 38.6816 61.5918C39.5112 61.257 40.3991 61.0902 41.2937 61.1011H118.472C127.539 61.1109 136.232 64.7172 142.644 71.1289C149.056 77.5405 152.662 86.2337 152.672 95.3011V190.741C152.661 199.808 149.054 208.501 142.643 214.912C136.231 221.324 127.539 224.93 118.472 224.941" fill="#3B564D"/>
<path d="M76.3293 186.061C75.4415 186.061 74.5624 185.887 73.7421 185.547C72.9218 185.208 72.1765 184.71 71.5487 184.082C70.9209 183.454 70.423 182.709 70.0834 181.888C69.7437 181.068 69.5691 180.189 69.5693 179.301V111.042C69.5693 109.249 70.2815 107.53 71.5493 106.262C72.817 104.994 74.5365 104.282 76.3293 104.282C78.1222 104.282 79.8416 104.994 81.1094 106.262C82.3771 107.53 83.0893 109.249 83.0893 111.042V179.302C83.0896 180.19 82.9149 181.069 82.5753 181.889C82.2357 182.71 81.7377 183.455 81.11 184.083C80.4822 184.711 79.7369 185.209 78.9166 185.548C78.0963 185.888 77.2171 186.061 76.3293 186.061Z" fill="#3B564D"/>
<path d="M110.459 151.944H42.1909C41.2963 151.955 40.4084 151.788 39.5788 151.454C38.7491 151.119 37.9942 150.623 37.3577 149.994C36.7213 149.365 36.216 148.616 35.8711 147.791C35.5262 146.965 35.3486 146.079 35.3486 145.185C35.3486 144.29 35.5262 143.404 35.8711 142.579C36.216 141.753 36.7213 141.005 37.3577 140.376C37.9942 139.747 38.7491 139.251 39.5788 138.916C40.4084 138.581 41.2963 138.414 42.1909 138.425H110.459C111.353 138.414 112.241 138.581 113.071 138.916C113.901 139.251 114.656 139.747 115.292 140.376C115.928 141.005 116.434 141.753 116.779 142.579C117.123 143.404 117.301 144.29 117.301 145.185C117.301 146.079 117.123 146.965 116.779 147.791C116.434 148.616 115.928 149.365 115.292 149.994C114.656 150.623 113.901 151.119 113.071 151.454C112.241 151.788 111.353 151.955 110.459 151.944Z" fill="#3B564D"/>
<path d="M122.221 74.7962C121.333 74.7965 120.454 74.6218 119.634 74.2822C118.813 73.9426 118.068 73.4446 117.44 72.8169C116.813 72.1891 116.315 71.4438 115.975 70.6235C115.635 69.8032 115.461 68.924 115.461 68.0362V48.0212C115.461 46.2284 116.173 44.5089 117.441 43.2412C118.709 41.9734 120.428 41.2612 122.221 41.2612C124.014 41.2612 125.733 41.9734 127.001 43.2412C128.269 44.5089 128.981 46.2284 128.981 48.0212V68.0362C128.981 68.924 128.807 69.8032 128.467 70.6235C128.127 71.4438 127.629 72.1891 127.002 72.8169C126.374 73.4446 125.628 73.9426 124.808 74.2822C123.988 74.6218 123.109 74.7965 122.221 74.7962Z" fill="#3B564D"/>
<path d="M40.8381 74.6351C39.9503 74.6354 39.0712 74.4607 38.2509 74.1211C37.4306 73.7814 36.6853 73.2835 36.0575 72.6557C35.4297 72.0279 34.9318 71.2826 34.5922 70.4623C34.2525 69.6421 34.0779 68.7629 34.0781 67.8751V47.8601C34.0781 46.0672 34.7903 44.3478 36.0581 43.0801C37.3258 41.8123 39.0453 41.1001 40.8381 41.1001C42.631 41.1001 44.3504 41.8123 45.6182 43.0801C46.8859 44.3478 47.5981 46.0672 47.5981 47.8601V67.8751C47.5984 68.7629 47.4237 69.6421 47.0841 70.4623C46.7445 71.2826 46.2465 72.0279 45.6188 72.6557C44.991 73.2835 44.2457 73.7814 43.4254 74.1211C42.6051 74.4607 41.7259 74.6354 40.8381 74.6351Z" fill="#3B564D"/>
</svg>
