<svg width="236" height="209" viewBox="0 0 236 209" fill="none" xmlns="http://www.w3.org/2000/svg">
<path d="M102.944 0.0087738C123.574 -0.262795 143.822 5.58947 161.127 16.8255C178.431 28.0615 192.015 44.1766 200.16 63.1329C208.306 82.0892 210.647 103.035 206.888 123.322C203.129 143.609 193.439 162.326 179.042 177.105C164.646 191.885 146.19 202.063 126.009 206.354C105.828 210.644 84.8274 208.853 65.6638 201.208C46.5002 193.563 30.034 180.407 18.3475 163.404C6.66101 146.4 0.279163 126.313 0.00898237 105.683C-0.35383 78.0196 10.2872 51.3453 29.5911 31.5277C48.8951 11.71 75.2808 0.372387 102.944 0.0087738Z" fill="#979B8A"/>
<path d="M235.379 168.496C235.374 177.347 231.885 185.84 225.667 192.139C219.448 198.437 210.999 202.034 202.149 202.151L187.227 202.351C178.3 202.457 169.695 199.018 163.3 192.789C156.906 186.559 153.243 178.047 153.117 169.121L151.391 38.2506C151.433 29.3538 154.847 20.8038 160.943 14.3236C164.021 11.146 167.698 8.60991 171.762 6.86176C175.827 5.1136 180.197 4.18806 184.621 4.13861L199.543 3.94762C203.965 3.88695 208.356 4.69865 212.464 6.3363C216.573 7.97396 220.318 10.4054 223.486 13.4917C226.654 16.578 229.183 20.2584 230.927 24.3227C232.672 28.3869 233.598 32.7552 233.653 37.1776L235.371 168.039L235.379 168.496ZM167.989 37.7946V38.0186L169.716 168.911C169.78 173.436 171.637 177.751 174.879 180.908C178.122 184.066 182.485 185.807 187.011 185.751L201.925 185.551C204.168 185.529 206.384 185.062 208.446 184.178C210.507 183.293 212.373 182.008 213.934 180.397C217.079 177.146 218.817 172.787 218.772 168.264L217.054 37.3856C217.024 35.145 216.554 32.9321 215.669 30.8733C214.785 28.8145 213.503 26.9502 211.898 25.3868C210.292 23.8235 208.395 22.5917 206.313 21.7619C204.232 20.9321 202.007 20.5205 199.767 20.5506L184.837 20.7416C180.35 20.8008 176.068 22.6236 172.915 25.8158C169.763 29.0081 167.994 33.3131 167.991 37.7996" fill="white"/>
<path d="M130.726 115.295C130.714 124.145 127.223 132.635 121.006 138.934C114.789 145.232 106.345 148.833 97.4958 148.96L79.6938 149.195C70.7682 149.3 62.1652 145.862 55.7711 139.633C49.3771 133.405 45.7139 124.895 45.5848 115.97L45.3848 101.048V100.6C45.397 91.7497 48.8881 83.2591 55.1048 76.96C61.3215 70.661 69.7655 67.0585 78.6148 66.9299L96.4088 66.6949C105.335 66.5891 113.94 70.0272 120.335 76.2554C126.731 82.4836 130.396 90.9937 130.527 99.9199L130.718 114.859L130.726 115.299M61.9848 100.6V100.824L62.1848 115.746C62.2509 120.271 64.1082 124.586 67.3497 127.744C70.5911 130.902 74.9524 132.646 79.4778 132.595L97.2718 132.363C101.76 132.301 106.043 130.476 109.197 127.283C112.351 124.089 114.121 119.783 114.127 115.295L114.119 115.063L113.928 100.133C113.866 95.6071 112.009 91.2912 108.766 88.1338C105.523 84.9764 101.159 83.2359 96.6328 83.2949L78.8328 83.5269C74.346 83.593 70.0651 85.4201 66.9133 88.614C63.7615 91.8079 61.9914 96.1127 61.9848 100.6Z" fill="white"/>
</svg>
