<svg width="238" height="261" viewBox="0 0 238 261" fill="none" xmlns="http://www.w3.org/2000/svg">
<path d="M202.024 175.401C202.025 192.207 197.043 208.635 187.707 222.609C178.371 236.583 165.101 247.475 149.575 253.907C134.049 260.339 116.964 262.022 100.481 258.744C83.9981 255.466 68.8575 247.373 56.9739 235.49C45.0903 223.607 36.9974 208.467 33.7187 191.984C30.44 175.501 32.1228 158.416 38.5541 142.89C44.9855 127.364 55.8767 114.093 69.8503 104.757C83.8239 95.4204 100.252 90.4374 117.058 90.438C139.592 90.438 161.203 99.3893 177.137 115.323C193.071 131.256 202.023 152.867 202.024 175.401Z" fill="#979B8A"/>
<path d="M39.593 238.544H27.432C20.1611 238.536 13.1901 235.645 8.04765 230.505C2.90522 225.365 0.0111157 218.395 0 211.124V111.13C0.0100576 103.858 2.90369 96.8877 8.04624 91.7466C13.1888 86.6056 20.1604 83.714 27.432 83.7061H39.593C46.8642 83.7132 53.8355 86.6048 58.9772 91.7462C64.1188 96.8876 67.0106 103.859 67.018 111.13V211.124C67.0095 218.395 64.1172 225.365 58.9757 230.505C53.8343 235.646 46.8635 238.537 39.593 238.544ZM27.432 97.2241C23.7454 97.2272 20.2104 98.6923 17.6025 101.298C14.9945 103.904 13.5264 107.437 13.52 111.124V211.124C13.5264 214.811 14.9945 218.344 17.6025 220.95C20.2104 223.556 23.7454 225.021 27.432 225.024H39.593C43.2785 225.019 46.8118 223.553 49.4183 220.948C52.0248 218.342 53.4919 214.81 53.498 211.124V111.13C53.4935 107.444 52.0271 103.909 49.4204 101.302C46.8137 98.6955 43.2795 97.2288 39.593 97.2241H27.432Z" fill="#3B564D"/>
<path d="M123.134 212.747H110.973C103.702 212.739 96.7312 209.847 91.5899 204.706C86.4485 199.565 83.5563 192.594 83.5479 185.323V106.978C83.5563 99.7073 86.4485 92.7367 91.5899 87.5955C96.7312 82.4543 103.702 79.5624 110.973 79.5542H123.134C130.404 79.5624 137.374 82.4545 142.515 87.5959C147.655 92.7372 150.546 99.7079 150.553 106.978V185.323C150.546 192.593 147.655 199.564 142.515 204.705C137.375 209.847 130.405 212.739 123.135 212.747M110.973 93.0732C107.287 93.0766 103.753 94.542 101.146 97.1479C98.5393 99.7538 97.0726 103.287 97.0679 106.973V185.318C97.0726 189.004 98.5393 192.538 101.146 195.143C103.753 197.749 107.287 199.215 110.973 199.218H123.134C126.819 199.215 130.353 197.749 132.959 195.143C135.565 192.537 137.03 189.004 137.034 185.318V106.978C137.03 103.293 135.565 99.7592 132.959 97.1532C130.353 94.5472 126.819 93.0816 123.134 93.0782L110.973 93.0732Z" fill="#3B564D"/>
<path d="M210.376 234.392H198.215C190.944 234.384 183.972 231.493 178.829 226.352C173.687 221.211 170.793 214.24 170.783 206.968V106.978C170.793 99.7066 173.687 92.7358 178.829 87.5948C183.972 82.4537 190.944 79.5621 198.215 79.5542H210.376C217.646 79.5627 224.616 82.4549 229.756 87.5962C234.897 92.7376 237.787 99.7081 237.794 106.978V206.968C237.787 214.238 234.897 221.209 229.756 226.35C224.616 231.492 217.646 234.384 210.376 234.392ZM198.215 93.0732C194.528 93.0753 190.993 94.5401 188.385 97.146C185.776 99.752 184.308 103.286 184.303 106.973V206.963C184.31 210.65 185.778 214.183 188.386 216.789C190.994 219.395 194.529 220.86 198.215 220.863H210.376C214.061 220.859 217.594 219.393 220.2 216.787C222.806 214.181 224.272 210.648 224.276 206.963V106.978C224.273 103.293 222.807 99.7592 220.201 97.1532C217.595 94.5472 214.062 93.0816 210.376 93.0782L198.215 93.0732Z" fill="#3B564D"/>
<path d="M123.134 69.341H110.973C103.703 69.3331 96.7333 66.4422 91.592 61.3025C86.4508 56.1627 83.5579 49.1937 83.5479 41.924V27.424C83.5563 20.1531 86.4485 13.1825 91.5899 8.0413C96.7312 2.90011 103.702 0.00820446 110.973 0H123.134C130.404 0.00820731 137.374 2.90031 142.515 8.04167C147.655 13.183 150.546 20.1537 150.553 27.424V41.924C150.544 49.1932 147.653 56.1622 142.513 61.3021C137.372 66.442 130.403 69.3331 123.134 69.341ZM110.973 13.519C107.287 13.5238 103.754 14.9896 101.148 17.5952C98.541 20.2008 97.0739 23.7335 97.0679 27.419V41.919C97.0724 45.605 98.5389 49.1387 101.146 51.7446C103.753 54.3505 107.287 55.8158 110.973 55.819H123.134C126.819 55.8161 130.353 54.3507 132.959 51.7446C135.566 49.1384 137.031 45.6046 137.034 41.919V27.419C137.029 23.7339 135.563 20.201 132.958 17.5952C130.352 14.9894 126.819 13.5235 123.134 13.519H110.973Z" fill="#3B564D"/>
</svg>
