<svg width="242" height="265" viewBox="0 0 242 265" fill="none" xmlns="http://www.w3.org/2000/svg">
<path d="M205.524 178.433C205.525 195.531 200.455 212.245 190.957 226.461C181.458 240.677 167.958 251.758 152.162 258.301C136.366 264.845 118.984 266.557 102.215 263.221C85.4462 259.886 70.0428 251.653 57.953 239.563C45.8632 227.473 37.63 212.07 34.2946 195.301C30.9593 178.532 32.6715 161.15 39.2148 145.354C45.7581 129.558 56.8386 116.058 71.0551 106.559C85.2715 97.0607 101.985 91.9914 119.083 91.9922C142.008 91.994 163.993 101.102 180.204 117.312C196.414 133.523 205.522 155.508 205.524 178.433Z" fill="#3B564D"/>
<path d="M40.28 242.678H27.908C20.5101 242.67 13.4174 239.728 8.1856 234.497C2.95381 229.267 0.0100574 222.175 0 214.777L0 113.048C0.010322 105.65 2.95419 98.5585 8.18595 93.3282C13.4177 88.098 20.5102 85.1562 27.908 85.1479H40.28C47.6763 85.1567 54.7671 88.0991 59.9965 93.3297C65.2259 98.5602 68.1669 105.652 68.174 113.048V214.777C68.1669 222.173 65.2259 229.265 59.9965 234.495C54.7671 239.726 47.6763 242.669 40.28 242.678ZM27.908 98.9019C24.1567 98.9054 20.5598 100.397 17.9066 103.049C15.2533 105.701 13.7603 109.297 13.755 113.048V214.777C13.76 218.529 15.2531 222.125 17.9066 224.777C20.5601 227.43 24.1573 228.921 27.909 228.924H40.28C44.0298 228.919 47.6245 227.427 50.2754 224.774C52.9263 222.122 54.4168 218.527 54.42 214.777V113.048C54.4166 109.298 52.9259 105.703 50.2751 103.051C47.6242 100.399 44.0297 98.907 40.28 98.9019H27.908Z" fill="white"/>
<path d="M125.269 216.448H112.896C105.499 216.439 98.4078 213.497 93.1775 208.267C87.9471 203.036 85.0048 195.945 84.9961 188.548V108.839C85.0048 101.442 87.9471 94.3507 93.1775 89.1203C98.4078 83.89 105.499 80.9477 112.896 80.939H125.269C132.665 80.9477 139.756 83.8902 144.986 89.1207C150.215 94.3512 153.156 101.443 153.163 108.839V188.547C153.156 195.943 150.215 203.035 144.986 208.265C139.756 213.496 132.665 216.438 125.269 216.447M112.896 94.693C109.145 94.6967 105.55 96.1882 102.897 98.8403C100.245 101.492 98.7538 105.088 98.7501 108.839V188.547C98.7535 192.298 100.245 195.894 102.897 198.547C105.55 201.199 109.146 202.691 112.897 202.694H125.269C129.019 202.69 132.615 201.198 135.266 198.546C137.917 195.893 139.407 192.297 139.409 188.547V108.839C139.407 105.089 137.917 101.493 135.266 98.84C132.615 96.1876 129.019 94.6957 125.269 94.692L112.896 94.693Z" fill="white"/>
<path d="M214.023 238.469H201.651C194.253 238.461 187.161 235.519 181.929 230.289C176.697 225.058 173.753 217.967 173.743 210.569V108.839C173.753 101.441 176.697 94.3495 181.929 89.1193C187.161 83.889 194.253 80.9472 201.651 80.939H214.023C221.419 80.9477 228.51 83.8902 233.74 89.1207C238.969 94.3512 241.91 101.443 241.917 108.839V210.569C241.91 217.965 238.969 225.057 233.74 230.287C228.51 235.518 221.419 238.46 214.023 238.469ZM201.651 94.693C197.899 94.6953 194.302 96.1863 191.649 98.8384C188.995 101.491 187.502 105.087 187.498 108.839V210.569C187.503 214.321 188.996 217.917 191.65 220.569C194.303 223.222 197.9 224.713 201.652 224.716H214.023C217.773 224.711 221.368 223.219 224.019 220.566C226.669 217.914 228.16 214.319 228.163 210.569V108.839C228.161 105.089 226.671 101.493 224.02 98.84C221.369 96.1876 217.773 94.6957 214.023 94.692L201.651 94.693Z" fill="white"/>
<path d="M125.269 70.547H112.896C105.5 70.5385 98.4095 67.5972 93.1793 62.368C87.949 57.1389 85.0062 50.0489 84.9961 42.653V27.9C85.0048 20.5031 87.9471 13.4117 93.1775 8.18137C98.4078 2.95099 105.499 0.00873349 112.896 0L125.269 0C132.665 0.00873642 139.756 2.95119 144.986 8.18173C150.215 13.4123 153.156 20.5037 153.163 27.9V42.653C153.155 50.0483 150.213 57.1384 144.984 62.3677C139.754 67.597 132.664 70.5385 125.269 70.547ZM112.896 13.755C109.146 13.76 105.551 15.2519 102.899 17.9035C100.247 20.555 98.7554 24.15 98.7501 27.9V42.653C98.7551 46.4028 100.247 49.9975 102.9 52.6484C105.552 55.2993 109.147 56.7898 112.897 56.793H125.269C129.018 56.7896 132.613 55.2987 135.264 52.6477C137.915 49.9967 139.406 46.4021 139.409 42.653V27.9C139.406 24.1502 137.915 20.5547 135.264 17.9025C132.614 15.2504 129.019 13.758 125.269 13.753L112.896 13.755Z" fill="white"/>
</svg>
