<svg width="302" height="330" viewBox="0 0 302 330" fill="none" xmlns="http://www.w3.org/2000/svg">
<path d="M255.926 222.199C255.928 243.488 249.616 264.3 237.789 282.002C225.962 299.704 209.152 313.502 189.483 321.65C169.815 329.798 148.171 331.93 127.291 327.777C106.41 323.624 87.2304 313.373 72.1763 298.319C57.1222 283.266 46.8702 264.086 42.7168 243.205C38.5634 222.325 40.6951 200.682 48.8425 181.013C56.9898 161.344 70.7868 144.533 88.4886 132.706C106.19 120.879 127.002 114.566 148.291 114.567C176.838 114.567 204.214 125.907 224.4 146.091C244.585 166.276 255.926 193.653 255.926 222.199Z" fill="#979B8A"/>
<path d="M50.157 302.191H34.751C25.5393 302.181 16.7076 298.518 10.193 292.005C3.67836 285.492 0.0127044 276.662 0 267.45V140.781C0.0127044 131.569 3.67836 122.739 10.193 116.226C16.7076 109.713 25.5393 106.05 34.751 106.04H50.157C59.3682 106.049 68.1996 109.712 74.713 116.225C81.2264 122.739 84.8897 131.57 84.899 140.781V267.45C84.8897 276.661 81.2264 285.493 74.713 292.006C68.1996 298.519 59.3682 302.182 50.157 302.191ZM34.751 123.167C30.0798 123.171 25.6009 125.028 22.2969 128.33C18.9929 131.632 17.1336 136.11 17.127 140.781V267.45C17.1334 272.121 18.9925 276.6 22.2965 279.902C25.6005 283.204 30.0796 285.061 34.751 285.065H50.157C54.827 285.059 59.3041 283.201 62.6063 279.899C65.9084 276.597 67.7662 272.12 67.772 267.45V140.781C67.7659 136.111 65.9081 131.634 62.6059 128.332C59.3037 125.03 54.8268 123.173 50.157 123.167H34.751Z" fill="white"/>
<path d="M155.987 269.511H140.581C131.37 269.5 122.54 265.837 116.027 259.324C109.514 252.811 105.85 243.981 105.839 234.77V135.521C105.85 126.31 109.514 117.48 116.027 110.967C122.54 104.454 131.37 100.79 140.581 100.78H155.987C165.197 100.79 174.026 104.454 180.538 110.967C187.05 117.48 190.712 126.311 190.721 135.521V234.77C190.712 243.98 187.05 252.81 180.538 259.323C174.026 265.836 165.197 269.5 155.987 269.511ZM140.581 117.911C135.911 117.915 131.434 119.772 128.132 123.073C124.83 126.375 122.972 130.851 122.966 135.521V234.77C122.97 239.44 124.828 243.918 128.13 247.221C131.433 250.523 135.91 252.38 140.581 252.385H155.987C160.656 252.38 165.133 250.522 168.434 247.22C171.736 243.917 173.591 239.439 173.594 234.77V135.521C173.59 130.852 171.734 126.376 168.433 123.074C165.132 119.773 160.656 117.916 155.987 117.911H140.581Z" fill="white"/>
<path d="M266.507 296.931H251.101C241.889 296.921 233.057 293.258 226.543 286.745C220.028 280.232 216.362 271.402 216.35 262.19V135.521C216.362 126.309 220.028 117.478 226.543 110.966C233.057 104.453 241.889 100.79 251.101 100.78H266.507C275.716 100.791 284.546 104.455 291.057 110.968C297.569 117.481 301.231 126.311 301.24 135.521V262.19C301.231 271.4 297.569 280.23 291.057 286.743C284.546 293.256 275.716 296.92 266.507 296.931ZM251.101 117.911C246.43 117.913 241.951 119.769 238.646 123.071C235.342 126.372 233.483 130.85 233.477 135.521V262.19C233.483 266.861 235.342 271.339 238.646 274.642C241.95 277.944 246.429 279.801 251.101 279.805H266.507C271.176 279.799 275.652 277.941 278.953 274.638C282.254 271.336 284.11 266.859 284.114 262.19V135.521C284.11 130.852 282.253 126.376 278.952 123.074C275.651 119.773 271.175 117.916 266.507 117.911H251.101Z" fill="white"/>
<path d="M155.987 87.842H140.581C131.372 87.8319 122.542 84.1698 116.029 77.6587C109.516 71.1477 105.852 62.3193 105.839 53.11V34.741C105.85 25.5303 109.514 16.6999 116.027 10.187C122.54 3.67416 131.37 0.0105861 140.581 0H155.987C165.197 0.01059 174.026 3.67442 180.538 10.1875C187.05 16.7006 190.712 25.531 190.721 34.741V53.11C190.71 62.3186 187.047 71.147 180.536 77.6582C174.024 84.1695 165.195 87.8319 155.987 87.842ZM140.581 17.127C135.911 17.1328 131.434 18.9904 128.132 22.2924C124.83 25.5944 122.972 30.0712 122.966 34.741V53.11C122.972 57.779 124.83 62.2548 128.133 65.5555C131.435 68.8561 135.912 70.712 140.581 70.716H155.987C160.655 70.7118 165.131 68.8555 168.432 65.5547C171.733 62.2539 173.589 57.7782 173.594 53.11V34.741C173.59 30.072 171.733 25.5953 168.433 22.2932C165.132 18.991 160.656 17.1331 155.987 17.127H140.581Z" fill="white"/>
</svg>
