<svg width="175" height="162" viewBox="0 0 175 162" fill="none" xmlns="http://www.w3.org/2000/svg">
<path d="M61.3067 129.551H27.1657C26.4943 129.551 25.8294 129.419 25.2091 129.162C24.5887 128.905 24.0251 128.528 23.5503 128.054C23.0755 127.579 22.6989 127.015 22.4419 126.395C22.185 125.775 22.0527 125.11 22.0527 124.438C22.0527 123.767 22.185 123.102 22.4419 122.482C22.6989 121.861 23.0755 121.298 23.5503 120.823C24.0251 120.348 24.5887 119.971 25.2091 119.714C25.8294 119.457 26.4943 119.325 27.1657 119.325H61.3067C61.9782 119.325 62.6431 119.457 63.2634 119.714C63.8837 119.971 64.4474 120.348 64.9222 120.823C65.397 121.298 65.7736 121.861 66.0305 122.482C66.2875 123.102 66.4197 123.767 66.4197 124.438C66.4197 125.11 66.2875 125.775 66.0305 126.395C65.7736 127.015 65.397 127.579 64.9222 128.054C64.4474 128.528 63.8837 128.905 63.2634 129.162C62.6431 129.419 61.9782 129.551 61.3067 129.551Z" fill="white"/>
<path d="M174.633 64.266C174.634 76.9777 170.865 89.4042 163.803 99.9739C156.741 110.544 146.704 118.782 134.96 123.647C123.216 128.512 110.293 129.785 97.8257 127.305C85.3582 124.826 73.906 118.705 64.9174 109.716C55.9288 100.728 49.8075 89.2756 47.3277 76.8081C44.8478 64.3406 46.1208 51.4178 50.9855 39.6738C55.8503 27.9298 64.0884 17.8922 74.6581 10.8303C85.2277 3.76837 97.6541 -0.000593263 110.366 7.00438e-08C127.41 6.17905e-08 143.757 6.7708 155.809 18.823C167.862 30.8751 174.633 47.2214 174.634 64.266" fill="#979B8A"/>
<path d="M88.6582 107.236H26.8142C25.4581 107.236 24.1576 106.697 23.1987 105.738C22.2399 104.779 21.7012 103.479 21.7012 102.123C21.7012 100.767 22.2399 99.4662 23.1987 98.5073C24.1576 97.5485 25.4581 97.0098 26.8142 97.0098H88.6582C90.0142 97.0098 91.3147 97.5485 92.2736 98.5073C93.2325 99.4662 93.7712 100.767 93.7712 102.123C93.7712 103.479 93.2325 104.779 92.2736 105.738C91.3147 106.697 90.0142 107.236 88.6582 107.236Z" fill="white"/>
<path d="M89.6169 161.583H25.8709C19.0126 161.576 12.4371 158.849 7.58746 153.999C2.73779 149.15 0.0100889 142.575 0.00294111 135.716V53.7742C-0.0435277 52.0049 0.461635 50.265 1.44839 48.7957C2.43514 47.3264 3.8546 46.2006 5.50994 45.5742C7.33179 44.9243 9.30733 44.8392 11.1783 45.33C13.0493 45.8208 14.7287 46.8647 15.9969 48.3252C20.9059 53.8412 28.9639 65.9932 27.6349 85.4932C27.6065 86.1693 27.4407 86.8326 27.1477 87.4425C26.8546 88.0525 26.4406 88.5965 25.9306 89.0413C25.4207 89.4862 24.8255 89.8226 24.1814 90.0301C23.5373 90.2375 22.8577 90.3118 22.1839 90.2482C20.8302 90.1549 19.5689 89.5278 18.6773 88.505C17.7857 87.4821 17.3367 86.147 17.4289 84.7932C18.3439 71.4022 13.9289 62.4692 10.2289 57.4382V135.713C10.2332 139.86 11.8824 143.836 14.8148 146.768C17.7471 149.701 21.723 151.35 25.8699 151.354H89.6159C93.7629 151.35 97.7388 149.701 100.671 146.768C103.603 143.836 105.253 139.86 105.257 135.713V63.5252C105.253 59.3783 103.603 55.4024 100.671 52.47C97.7388 49.5377 93.7629 47.8884 89.6159 47.8842H31.2439C29.8879 47.8842 28.5874 47.3455 27.6285 46.3866C26.6696 45.4278 26.1309 44.1273 26.1309 42.7712C26.1309 41.4152 26.6696 40.1146 27.6285 39.1558C28.5874 38.1969 29.8879 37.6582 31.2439 37.6582H89.6209C96.4779 37.668 103.051 40.3965 107.899 45.2455C112.748 50.0945 115.475 56.6682 115.484 63.5252V135.716C115.475 142.574 112.747 149.149 107.898 153.998C103.048 158.847 96.4748 161.575 89.6169 161.583Z" fill="white"/>
</svg>
