<svg width="254" height="235" viewBox="0 0 254 235" fill="none" xmlns="http://www.w3.org/2000/svg">
<path d="M88.8808 187.827H39.3808C38.4073 187.827 37.4433 187.635 36.5439 187.263C35.6446 186.89 34.8274 186.344 34.139 185.656C33.4506 184.967 32.9046 184.15 32.5321 183.251C32.1595 182.351 31.9678 181.387 31.9678 180.414C31.9678 179.44 32.1595 178.477 32.5321 177.577C32.9046 176.678 33.4506 175.861 34.139 175.172C34.8274 174.484 35.6446 173.938 36.5439 173.565C37.4433 173.193 38.4073 173.001 39.3808 173.001H88.8808C89.8543 173.001 90.8182 173.193 91.7176 173.565C92.617 173.938 93.4342 174.484 94.1226 175.172C94.8109 175.861 95.357 176.678 95.7295 177.577C96.102 178.477 96.2938 179.44 96.2938 180.414C96.2938 181.387 96.102 182.351 95.7295 183.251C95.357 184.15 94.8109 184.967 94.1226 185.656C93.4342 186.344 92.617 186.89 91.7176 187.263C90.8182 187.635 89.8543 187.827 88.8808 187.827Z" fill="white"/>
<path d="M253.185 93.174C253.187 111.604 247.723 129.62 237.485 144.945C227.246 160.269 212.694 172.214 195.667 179.267C178.64 186.321 159.904 188.167 141.828 184.572C123.752 180.977 107.149 172.103 94.1164 159.071C81.0843 146.039 72.2093 129.436 68.6138 111.36C65.0182 93.284 66.8637 74.548 73.9167 57.521C80.9698 40.4941 92.9137 25.9411 108.238 15.7024C123.562 5.46368 141.578 -0.000791008 160.008 8.58829e-08C184.72 7.30745e-08 208.419 9.81642 225.893 27.2899C243.367 44.7633 253.184 68.4624 253.185 93.174Z" fill="#3B564D"/>
<path d="M128.536 155.472H38.873C36.9069 155.472 35.0214 154.691 33.6312 153.301C32.241 151.911 31.46 150.025 31.46 148.059C31.46 146.093 32.241 144.207 33.6312 142.817C35.0214 141.427 36.9069 140.646 38.873 140.646H128.536C130.502 140.646 132.388 141.427 133.778 142.817C135.168 144.207 135.949 146.093 135.949 148.059C135.949 150.025 135.168 151.911 133.778 153.301C132.388 154.691 130.502 155.472 128.536 155.472Z" fill="white"/>
<path d="M129.925 234.266H37.5041C27.5618 234.255 18.0299 230.301 10.9996 223.271C3.96934 216.24 0.0149767 206.708 0.00412428 196.766V77.9632C-0.0621085 75.399 0.670802 72.8777 2.10131 70.7486C3.53182 68.6195 5.5891 66.988 7.98812 66.0802C10.6289 65.1387 13.4921 65.0157 16.2039 65.7272C18.9156 66.4387 21.3497 67.9516 23.1881 70.0682C30.3051 78.0592 41.9881 95.6802 40.0611 123.946C40.0197 124.926 39.7794 125.887 39.3547 126.771C38.9301 127.656 38.33 128.444 37.591 129.089C36.852 129.734 35.9895 130.222 35.0561 130.523C34.1226 130.824 33.1376 130.932 32.1611 130.84C30.2001 130.705 28.3729 129.797 27.0804 128.316C25.788 126.835 25.1359 124.901 25.2671 122.94C26.5941 103.525 20.1961 90.5752 14.8291 83.2802V196.764C14.8355 202.776 17.2267 208.541 21.4781 212.792C25.7296 217.043 31.4938 219.434 37.5061 219.44H129.927C135.939 219.434 141.704 217.043 145.955 212.792C150.207 208.541 152.598 202.776 152.604 196.764V92.0992C152.598 86.0869 150.207 80.3227 145.955 76.0715C141.704 71.8203 135.939 69.4293 129.927 69.4232H45.2881C43.3221 69.4232 41.4365 68.6422 40.0463 67.252C38.6561 65.8617 37.8751 63.9762 37.8751 62.0102C37.8751 60.0441 38.6561 58.1586 40.0463 56.7684C41.4365 55.3782 43.3221 54.5972 45.2881 54.5972H129.925C139.867 54.6093 149.398 58.5641 156.428 65.5941C163.458 72.6241 167.413 82.1553 167.425 92.0972V196.764C167.413 206.706 163.458 216.237 156.428 223.267C149.398 230.297 139.867 234.252 129.925 234.264" fill="white"/>
</svg>
