<svg width="239" height="221" viewBox="0 0 239 221" fill="none" xmlns="http://www.w3.org/2000/svg">
<path d="M83.8288 177.143H37.1468C36.2286 177.143 35.3195 176.962 34.4712 176.611C33.623 176.26 32.8523 175.745 32.203 175.095C31.5538 174.446 31.0388 173.675 30.6875 172.827C30.3361 171.979 30.1553 171.07 30.1553 170.152C30.1553 169.234 30.3361 168.324 30.6875 167.476C31.0388 166.628 31.5538 165.857 32.203 165.208C32.8523 164.559 33.623 164.044 34.4712 163.692C35.3195 163.341 36.2286 163.16 37.1468 163.16H83.8288C84.7469 163.16 85.6561 163.341 86.5043 163.692C87.3526 164.044 88.1233 164.559 88.7725 165.208C89.4217 165.857 89.9367 166.628 90.2881 167.476C90.6394 168.324 90.8203 169.234 90.8203 170.152C90.8203 171.07 90.6394 171.979 90.2881 172.827C89.9367 173.675 89.4217 174.446 88.7725 175.095C88.1233 175.745 87.3526 176.26 86.5043 176.611C85.6561 176.962 84.7469 177.143 83.8288 177.143Z" fill="#3B564D"/>
<path d="M238.786 87.875C238.787 105.256 233.634 122.248 223.978 136.7C214.322 151.153 200.597 162.417 184.539 169.069C168.481 175.721 150.811 177.462 133.764 174.072C116.716 170.681 101.057 162.312 88.7666 150.021C76.476 137.731 68.1059 122.072 64.715 105.025C61.3241 87.9772 63.0645 70.3071 69.7163 54.2489C76.368 38.1906 87.6323 24.4656 102.085 14.8093C116.537 5.1531 133.528 -0.000593276 150.909 5.12251e-08C174.215 4.51891e-08 196.567 9.25817 213.047 25.7379C229.527 42.2176 238.786 64.5689 238.786 87.875Z" fill="#979B8A"/>
<path d="M121.229 146.626H36.6663C35.7482 146.626 34.839 146.445 33.9908 146.094C33.1425 145.743 32.3718 145.228 31.7226 144.578C31.0733 143.929 30.5584 143.158 30.207 142.31C29.8556 141.462 29.6748 140.553 29.6748 139.635C29.6748 138.716 29.8556 137.807 30.207 136.959C30.5584 136.111 31.0733 135.34 31.7226 134.691C32.3718 134.042 33.1425 133.527 33.9908 133.175C34.839 132.824 35.7482 132.643 36.6663 132.643H121.229C122.147 132.643 123.057 132.824 123.905 133.175C124.753 133.527 125.524 134.042 126.173 134.691C126.822 135.34 127.337 136.111 127.689 136.959C128.04 137.807 128.221 138.716 128.221 139.635C128.221 140.553 128.04 141.462 127.689 142.31C127.337 143.158 126.822 143.929 126.173 144.578C125.524 145.228 124.753 145.743 123.905 146.094C123.057 146.445 122.147 146.626 121.229 146.626Z" fill="#3B564D"/>
<path d="M122.538 220.942H35.3739C25.9963 220.933 17.0055 217.203 10.3744 210.572C3.74333 203.942 0.0136762 194.951 0.00388124 185.573V73.5272C-0.0585155 71.1089 0.632752 68.731 1.98191 66.723C3.33107 64.7151 5.27133 63.1764 7.53388 62.3202C10.025 61.4314 12.7264 61.3149 15.2848 61.9859C17.8432 62.6569 20.1396 64.0842 21.8739 66.0812C28.5859 73.6182 39.6049 90.2362 37.7869 116.894C37.7477 117.818 37.5208 118.725 37.1201 119.559C36.7194 120.393 36.1532 121.136 35.456 121.744C34.7588 122.353 33.9451 122.812 33.0646 123.096C32.184 123.38 31.2549 123.481 30.3339 123.394C28.4843 123.266 26.7612 122.409 25.5426 121.012C24.324 119.615 23.7095 117.791 23.8339 115.941C25.0849 97.6312 19.0519 85.4172 13.9899 78.5412V185.573C13.9957 191.244 16.2508 196.68 20.2604 200.69C24.27 204.699 29.7065 206.954 35.3769 206.96H122.541C128.211 206.954 133.648 204.699 137.657 200.69C141.667 196.68 143.922 191.244 143.928 185.573V86.8612C143.922 81.1908 141.667 75.7543 137.657 71.7448C133.648 67.7352 128.211 65.48 122.541 65.4742H42.7149C41.7967 65.4742 40.8876 65.2934 40.0393 64.942C39.1911 64.5907 38.4204 64.0757 37.7711 63.4264C37.1219 62.7772 36.6069 62.0065 36.2556 61.1582C35.9042 60.31 35.7234 59.4008 35.7234 58.4827C35.7234 57.5646 35.9042 56.6554 36.2556 55.8072C36.6069 54.9589 37.1219 54.1882 37.7711 53.539C38.4204 52.8898 39.1911 52.3748 40.0393 52.0234C40.8876 51.6721 41.7967 51.4912 42.7149 51.4912H122.538C131.915 51.5018 140.905 55.2315 147.536 61.8622C154.167 68.4928 157.897 77.4829 157.908 86.8602V185.571C157.897 194.948 154.167 203.939 147.536 210.569C140.905 217.2 131.915 220.93 122.538 220.94" fill="#3B564D"/>
</svg>
