<svg xmlns="http://www.w3.org/2000/svg" width="215.109" height="211.609" viewBox="0 0 215.109 211.609">
  <g id="Groupe_184" data-name="Groupe 184" transform="translate(18355 713.127)">
    <path id="Tracé_283" data-name="Tracé 283" d="M217.438,96.819A98.11,98.11,0,1,1,118.052.009a98.108,98.108,0,0,1,99.386,96.811" transform="translate(-18376.227 -713.127)" fill="#979b8a"/>
    <path id="Tracé_286" data-name="Tracé 286" d="M138.678,103.066l13.7-13.7a39.5,39.5,0,0,0,0-55.8L134.507,15.7a39.512,39.512,0,0,0-55.8,0L36.678,57.725a39.513,39.513,0,0,0,0,55.8L54.544,131.4a39.484,39.484,0,0,0,55.8,0L125.8,115.943l67.341,67.333L206.019,170.4ZM97.472,118.52a21.27,21.27,0,0,1-30.051,0L49.554,100.653a21.287,21.287,0,0,1,0-30.051L91.589,28.575a21.248,21.248,0,0,1,30.042,0L139.5,46.442a21.287,21.287,0,0,1,0,30.051Z" transform="translate(-18345.91 -684.793)" fill="#3b564d"/>
    <rect id="Rectangle_160" data-name="Rectangle 160" width="129.711" height="18.213" transform="translate(-18346.424 -526.831)" fill="#3b564d"/>
  </g>
</svg>
