<svg width="331" height="509" viewBox="0 0 331 509" fill="none" xmlns="http://www.w3.org/2000/svg">
<path d="M298.83 68.3901C299.41 69.1901 299.98 69.9901 300.54 70.8001L300.77 69.1101L298.83 68.3901Z" fill="black"/>
<path d="M330.179 165.08V185.71L290.959 190.13C284.779 187.99 268.829 182.88 248.449 179.37C247.609 178.78 246.849 178.31 246.269 177.95C244.579 176.89 242.599 175.79 240.359 174.65C243.519 173.31 246.679 171.73 249.799 169.89C276.729 153.99 293.459 123.2 299.519 78.3698L300.539 70.7998C319.219 97.5398 330.179 130.05 330.179 165.08Z" fill="#3B564D"/>
<path d="M298.829 68.39L292.009 65.85C290.279 65.21 249.279 50.38 212.129 72.08C209.819 73.43 207.579 74.89 205.409 76.45C205.659 74.3 205.799 72.12 205.829 69.89C206.199 45.61 194.089 22.79 169.849 2.06L167.449 0C221.439 0.77 269.239 27.57 298.829 68.39Z" fill="#3B564D"/>
<path d="M108.27 174.84C99.51 178.23 91.22 181.69 83.76 184.81C74.81 188.56 63.66 193.22 60.7 193.59C53.24 194.35 25.72 187.87 0 180.4V165.08C0 129.28 11.45 96.1098 30.89 69.0298L31.46 73.2698C37.52 118.1 54.25 148.89 81.18 164.79C90.13 170.07 99.37 173.18 108.27 174.84Z" fill="#3B564D"/>
<path d="M156.67 0.209961L154.35 2.33995C153.69 2.94995 137.97 17.58 130.23 41.28C127.45 49.78 125.51 60.08 126.04 71.69C123.72 70 121.33 68.43 118.85 66.98C81.7002 45.28 40.7002 60.11 38.9702 60.75L36.4902 61.67C65.1302 26.12 108.17 2.64996 156.67 0.209961Z" fill="#3B564D"/>
<path d="M330.18 209.23V290.73C317.63 291.63 306.97 292.21 303.01 292C294.14 289.31 249.3 262.67 210.14 237.91C204.21 232.87 182.2 218.84 145.73 248.53C126.32 264.33 117.11 268.08 114.02 268.96C113.39 268.43 112.71 267.57 112.44 266.23C111.82 263.18 111.88 251.08 138.48 223.67C184.84 175.9 284.46 212.6 285.45 212.98L288.09 213.97L330.18 209.23Z" fill="#D3D5CC"/>
<path d="M302.69 315.36C301.97 317.46 300.83 318.61 299.82 319.4C293.39 324.44 279.81 323.68 275.6 323.02C275.56 323.02 275.53 323.02 275.5 323L268.48 321.86C268.48 321.86 268.44 321.85 268.42 321.85C264.48 321.06 259.17 319.76 253.62 317.75C244.58 314.47 232.96 308.56 228.93 299.05C226.41 293.11 219.55 290.33 213.61 292.85C207.67 295.37 204.89 302.23 207.41 308.17C213.27 321.96 226.67 332.94 246.18 339.9C249.63 341.13 252.98 342.14 256.07 342.96C252.95 347.27 249.55 350.22 245.96 351.67C240.62 353.82 236 352.15 235.2 351.82L223.44 345.28L223.33 345.6C214.88 340.97 205.95 335.64 202.22 332.25C197.44 327.91 190.05 328.27 185.71 333.05C181.38 337.83 181.74 345.22 186.52 349.56C191.13 353.75 199.15 358.77 206.69 363.08C203.32 363.29 199.81 363.18 196.87 362.78H196.85C184.3 359.03 171.19 353.83 168.28 351.43C164.01 346.78 156.78 346.36 151.99 350.55C148.75 353.39 147.46 357.62 148.22 361.56C126.72 354.01 98.53 342.62 73.38 327.68C47.64 312.4 20.94 304.82 0 301.07V204.7C18.57 209.93 46.19 216.98 60.04 216.98C61.12 216.98 62.12 216.94 63.02 216.85C68.94 216.25 76.86 213.03 92.78 206.37C111.49 198.55 138.21 187.37 162.18 182.71C146.15 187.98 132.54 196.24 121.71 207.4C96.07 233.82 85.63 254.95 89.79 272.02C92.89 284.72 102.81 289.85 106.28 291.28C116.65 296.12 133.95 288.24 160.48 266.65C179.37 251.28 190.84 252.41 194.56 255.3L195.01 255.98L196.84 257.15C197.06 257.28 219.1 271.23 242.18 285.1C290.97 314.43 296.69 314.92 300.47 315.25C301.09 315.3 301.84 315.34 302.69 315.36Z" fill="#D3D5CC"/>
<path d="M151.53 387.4V415.07C131.27 396.55 99.26 374.96 55.88 368.62C37.91 365.99 19.75 366.29 1.97 369.28C0.670001 360.97 0 352.46 0 343.8V324.94C18.11 328.52 40.32 335.23 61.45 347.77C93.03 366.52 128.3 379.78 151.53 387.4Z" fill="#3B564D"/>
<path d="M330.181 314.17V343.8C330.181 360.01 327.831 375.67 323.461 390.48C303.121 385.18 279.111 382.6 252.731 386.66C224.501 391.01 197.971 402.4 174.891 419.34V394.46C176.151 394.8 176.931 395.01 177.181 395.07L180.511 395.92L183.781 394.83C187.241 393.68 194.041 391.01 199.291 386.45C208.831 386.98 225.691 386.22 235.421 375.79C240.471 376.45 246.911 376.3 253.901 373.65C264.911 369.49 273.981 360.49 280.941 346.86C290.031 347.08 303.901 345.84 314.151 337.85C321.391 332.21 325.691 324.12 326.581 314.41C327.761 314.33 328.971 314.25 330.181 314.17Z" fill="#3B564D"/>
<path d="M278.66 463.51C257.44 483.66 230.88 498.24 201.35 504.88C217.94 483.21 241.29 468.54 267.13 464.56C271.07 463.95 274.92 463.62 278.66 463.51Z" fill="#B9C5B1"/>
<path d="M315.2 412.49C310.52 422.69 304.82 432.33 298.25 441.29C287.65 439.78 275.99 439.56 263.57 441.47C224.87 447.42 190.85 472.56 171 508.79C169.04 508.85 167.07 508.89 165.09 508.89C154.28 508.89 143.71 507.85 133.48 505.85C157.99 454.09 203.83 417.84 256.29 409.76C278.06 406.41 298.03 408.3 315.2 412.49Z" fill="#B9C5B1"/>
<path d="M147.339 443.95C140.689 451.12 134.509 458.85 128.889 467.07C116.409 452.72 93.9592 433.03 60.7092 425.96C47.5992 423.17 34.2092 422.68 20.9992 424.31C15.3092 414.18 10.6592 403.39 7.19922 392.09C22.1792 389.71 37.4292 389.53 52.5092 391.74C99.7292 398.64 131.649 426.59 147.339 443.95Z" fill="#B9C5B1"/>
<path d="M117.311 486.06C114.931 490.48 112.691 495.01 110.601 499.65C81.0509 489.29 55.3109 470.75 36.1309 446.75C42.7409 446.76 49.3509 447.44 55.8509 448.82C86.9009 455.42 106.511 475.89 115.431 487.5L117.311 486.06Z" fill="#B9C5B1"/>
<path d="M164.401 427.98H163.971C164.051 427.91 164.131 427.84 164.221 427.77L164.401 427.98Z" fill="black"/>
<path d="M164.401 427.98H163.971C164.051 427.91 164.131 427.84 164.221 427.77L164.401 427.98Z" fill="black"/>
<path d="M145.28 150.94C133.3 153.53 111.7 155.75 92.8905 144.57C74.4305 133.59 62.1305 111.98 56.2305 80.2502C67.7705 77.9502 88.3805 76.2402 107.06 87.1502C125.83 98.1202 138.66 119.55 145.28 150.94Z" fill="#979B8A"/>
<path d="M298.83 68.3901C299.41 69.1901 299.98 69.9901 300.54 70.8001L300.77 69.1101L298.83 68.3901Z" fill="black"/>
<path d="M274.739 85.4001C268.839 117.1 256.539 138.7 238.089 149.67C219.279 160.85 197.679 158.63 185.699 156.04C192.289 124.76 205.069 103.36 223.739 92.3601C242.309 81.4301 263.109 83.1201 274.739 85.4001Z" fill="#979B8A"/>
<path d="M182.459 69.4001C182.249 86.8301 172.089 101.69 164.439 110.43C149.979 90.1101 145.849 69.61 152.179 49.36C154.989 40.36 159.409 32.9801 163.169 27.8101C176.159 41.3001 182.639 55.2601 182.459 69.4001Z" fill="#979B8A"/>
<path d="M164.401 427.98H163.971C164.051 427.91 164.131 427.84 164.221 427.77L164.401 427.98Z" fill="black"/>
</svg>
