<svg width="210" height="230" viewBox="0 0 210 230" fill="none" xmlns="http://www.w3.org/2000/svg">
<path d="M178.192 74.684C178.193 89.4559 173.813 103.896 165.607 116.179C157.4 128.462 145.736 138.035 132.088 143.688C118.441 149.341 103.424 150.821 88.9354 147.939C74.4473 145.057 61.1391 137.944 50.6937 127.499C40.2484 117.053 33.1351 103.745 30.2533 89.257C27.3716 74.7688 28.8509 59.7515 34.5042 46.1041C40.1574 32.4567 49.7307 20.7923 62.0134 12.5858C74.2961 4.37929 88.7364 -0.000593282 103.508 6.0277e-08C123.316 0.00026527 142.312 7.86882 156.318 21.8747C170.324 35.8806 178.192 54.8767 178.192 74.684Z" fill="#3B564D"/>
<path d="M34.8 80.6318H24.112C17.7203 80.6247 11.5924 78.0828 7.07225 73.5638C2.55209 69.0448 0.00873395 62.9175 0 56.5258L0 43.7798C0.00873395 37.3882 2.55209 31.2609 7.07225 26.7418C11.5924 22.2228 17.7203 19.681 24.112 19.6738H34.8C41.19 19.6828 47.3156 22.2256 51.8335 26.7446C56.3513 31.2636 58.8926 37.3898 58.9 43.7798V56.5258C58.8926 62.9158 56.3513 69.0421 51.8335 73.561C47.3156 78.08 41.19 80.6228 34.8 80.6318ZM24.112 31.5578C20.8709 31.5607 17.7632 32.8492 15.4708 35.1404C13.1784 37.4317 11.8885 40.5387 11.884 43.7798V56.5258C11.8885 59.767 13.1784 62.874 15.4708 65.1652C17.7632 67.4565 20.8709 68.7449 24.112 68.7478H34.8C38.0398 68.7436 41.1456 67.4544 43.4362 65.1632C45.7267 62.8719 47.0148 59.7656 47.018 56.5258V43.7798C47.0148 40.54 45.7267 37.4338 43.4362 35.1425C41.1456 32.8512 38.0398 31.5621 34.8 31.5578H24.112Z" fill="white"/>
<path d="M185.544 80.6318H174.854C168.463 80.6244 162.336 78.0823 157.817 73.5632C153.298 69.044 150.755 62.9169 150.748 56.5258V43.7798C150.755 37.3888 153.298 31.2616 157.817 26.7425C162.336 22.2234 168.463 19.6812 174.854 19.6738H185.544C191.934 19.6815 198.061 22.2239 202.579 26.7432C207.097 31.2624 209.638 37.3894 209.644 43.7798V56.5258C209.638 62.9162 207.097 69.0432 202.579 73.5625C198.061 78.0818 191.934 80.6241 185.544 80.6318ZM174.854 31.5578C171.614 31.5621 168.508 32.8511 166.216 35.1422C163.925 37.4334 162.636 40.5397 162.632 43.7798V56.5258C162.636 59.766 163.925 62.8723 166.216 65.1634C168.508 67.4546 171.614 68.7436 174.854 68.7478H185.544C188.784 68.7433 191.889 67.454 194.179 65.1628C196.469 62.8715 197.757 59.7654 197.76 56.5258V43.7798C197.757 40.5403 196.469 37.4342 194.179 35.1429C191.889 32.8516 188.784 31.5623 185.544 31.5578H174.854Z" fill="white"/>
<path d="M34.8 229.353H24.112C17.7213 229.346 11.5941 226.805 7.07408 222.288C2.55403 217.77 0.0100571 211.644 0 205.253L0 117.353C0.00846939 110.961 2.55171 104.834 7.0719 100.314C11.5921 95.7952 17.7202 93.2532 24.112 93.2461H34.8C41.1902 93.2551 47.3159 95.798 51.8338 100.317C56.3517 104.836 58.8929 110.963 58.9 117.353V205.253C58.8913 211.642 56.3494 217.767 51.8316 222.285C47.3139 226.802 41.189 229.344 34.8 229.353ZM24.112 105.13C20.8707 105.133 17.7629 106.422 15.4705 108.713C13.1781 111.005 11.8882 114.112 11.884 117.353V205.253C11.8885 208.494 13.1786 211.6 15.4711 213.891C17.7637 216.181 20.8713 217.469 24.112 217.47H34.8C38.0393 217.467 41.1452 216.179 43.4359 213.889C45.7265 211.598 47.0148 208.492 47.018 205.253V117.353C47.0151 114.113 45.7271 111.007 43.4365 108.715C41.146 106.424 38.04 105.134 34.8 105.13H24.112Z" fill="white"/>
<path d="M185.544 225.709H174.854C168.463 225.702 162.336 223.159 157.817 218.64C153.298 214.121 150.755 207.994 150.748 201.603V113.71C150.755 107.319 153.298 101.192 157.817 96.6727C162.336 92.1535 168.463 89.6114 174.854 89.604H185.544C191.934 89.6117 198.061 92.1541 202.579 96.6733C207.097 101.193 209.638 107.32 209.644 113.71V201.603C209.638 207.993 207.097 214.12 202.579 218.64C198.061 223.159 191.934 225.701 185.544 225.709ZM174.854 101.488C171.614 101.492 168.508 102.781 166.216 105.072C163.925 107.364 162.636 110.47 162.632 113.71V201.603C162.637 204.843 163.926 207.949 166.217 210.24C168.508 212.531 171.614 213.82 174.854 213.824H185.544C188.784 213.82 191.889 212.531 194.18 210.239C196.47 207.948 197.758 204.842 197.761 201.602V113.71C197.758 110.47 196.47 107.364 194.18 105.073C191.889 102.781 188.784 101.492 185.544 101.488H174.854Z" fill="white"/>
<path d="M108.851 80.6318H98.1665C91.7755 80.6244 85.6484 78.0823 81.1292 73.5632C76.6101 69.044 74.068 62.9169 74.0605 56.5258V43.7798C74.068 37.3888 76.6101 31.2616 81.1292 26.7425C85.6484 22.2234 91.7755 19.6812 98.1665 19.6738H108.851C115.241 19.6815 121.367 22.2239 125.885 26.7432C130.404 31.2624 132.944 37.3894 132.951 43.7798V56.5258C132.944 62.9162 130.404 69.0432 125.885 73.5625C121.367 78.0818 115.241 80.6241 108.851 80.6318ZM98.1665 31.5578C94.9264 31.5621 91.8201 32.8511 89.529 35.1422C87.2378 37.4334 85.9488 40.5397 85.9445 43.7798V56.5258C85.9488 59.766 87.2378 62.8723 89.529 65.1634C91.8201 67.4546 94.9264 68.7436 98.1665 68.7478H108.851C112.091 68.7446 115.197 67.4558 117.488 65.1643C119.778 62.8727 121.066 59.7659 121.068 56.5258V43.7798C121.066 40.5398 119.778 37.4329 117.488 35.1414C115.197 32.8499 112.091 31.561 108.851 31.5578H98.1665Z" fill="white"/>
<path d="M108.851 229.352H98.1665C91.7755 229.345 85.6484 226.802 81.1292 222.283C76.6101 217.764 74.068 211.637 74.0605 205.246V113.71C74.068 107.319 76.6101 101.192 81.1292 96.6727C85.6484 92.1535 91.7755 89.6114 98.1665 89.604H108.851C115.241 89.6117 121.367 92.1541 125.885 96.6733C130.404 101.193 132.944 107.32 132.951 113.71V205.245C132.944 211.635 130.404 217.762 125.885 222.282C121.367 226.801 115.241 229.343 108.851 229.351M98.1665 101.488C94.9264 101.492 91.8201 102.781 89.529 105.072C87.2378 107.364 85.9488 110.47 85.9445 113.71V205.245C85.9475 208.486 87.236 211.593 89.5274 213.884C91.8189 216.176 94.9259 217.465 98.1665 217.468H108.851C112.091 217.466 115.198 216.177 117.489 213.886C119.78 211.594 121.067 208.486 121.068 205.246V113.71C121.066 110.47 119.778 107.363 117.488 105.072C115.197 102.78 112.091 101.491 108.851 101.488H98.1665Z" fill="white"/>
</svg>
