<svg width="193" height="211" viewBox="0 0 193 211" fill="none" xmlns="http://www.w3.org/2000/svg">
<path d="M163.435 68.5C163.435 82.0481 159.417 95.2919 151.89 106.557C144.363 117.821 133.665 126.601 121.148 131.786C108.631 136.97 94.8583 138.327 81.5705 135.684C68.2828 133.041 56.0773 126.516 46.4974 116.936C36.9176 107.356 30.3937 95.1508 27.7507 81.8631C25.1077 68.5753 26.4644 54.8022 31.6491 42.2855C36.8339 29.7688 45.6139 19.0706 56.8788 11.5438C68.1437 4.01709 81.3875 -0.000197775 94.9356 7.30265e-09C113.103 7.30267e-09 130.526 7.21694 143.372 20.0632C156.219 32.9094 163.435 50.3327 163.435 68.5Z" fill="#979B8A"/>
<path d="M31.914 73.9539H22.114C16.2518 73.9471 10.6316 71.6155 6.48605 67.4707C2.34048 63.3259 0.00793932 57.7061 0 51.8439L0 40.1539C0.00793986 34.2916 2.34062 28.6717 6.48641 24.5268C10.6322 20.382 16.2526 18.0506 22.115 18.0439H31.915C37.7769 18.0506 43.3968 20.3821 47.5418 24.5271C51.6868 28.6721 54.0184 34.292 54.025 40.1539V51.8439C54.0184 57.7059 51.6868 63.3258 47.5418 67.4708C43.3968 71.6158 37.7769 73.9473 31.915 73.9539M22.115 28.9439C19.1424 28.9469 16.2922 30.1287 14.1898 32.2302C12.0873 34.3317 10.9042 37.1813 10.9 40.1539V51.8439C10.9042 54.8168 12.0875 57.6665 14.1901 59.7681C16.2928 61.8696 19.1432 63.0513 22.116 63.0539H31.916C34.8882 63.051 37.7378 61.869 39.8395 59.7674C41.9411 57.6657 43.1231 54.8161 43.126 51.8439V40.1539C43.1231 37.1818 41.9411 34.3321 39.8395 32.2305C37.7378 30.1288 34.8882 28.9469 31.916 28.9439H22.115Z" fill="white"/>
<path d="M170.178 73.9539H160.378C154.516 73.9473 148.896 71.6158 144.751 67.4708C140.606 63.3258 138.274 57.7059 138.268 51.8439V40.1539C138.274 34.2927 140.605 28.6734 144.749 24.5285C148.893 20.3837 154.512 18.0516 160.374 18.0439H170.174C176.034 18.0522 181.652 20.3845 185.795 24.5295C189.938 28.6744 192.268 34.2934 192.274 40.1539V51.8439C192.268 57.7044 189.938 63.3235 185.795 67.4684C181.652 71.6133 176.034 73.9457 170.174 73.9539M160.374 28.9439C157.402 28.9479 154.553 30.1302 152.451 32.2317C150.35 34.3331 149.168 37.1821 149.164 40.1539V51.8439C149.168 54.8158 150.35 57.6648 152.451 59.7662C154.553 61.8677 157.402 63.05 160.374 63.0539H170.174C173.144 63.0486 175.991 61.8656 178.091 59.7642C180.19 57.6627 181.371 54.8145 181.374 51.8439V40.1539C181.371 37.1834 180.19 34.3352 178.091 32.2337C175.991 30.1323 173.144 28.9492 170.174 28.9439H160.374Z" fill="white"/>
<path d="M31.914 210.358H22.114C16.2528 210.351 10.6333 208.021 6.48788 203.877C2.34242 199.734 0.00926243 194.115 0 188.254L0 107.631C0.00793986 101.769 2.34062 96.1487 6.48641 92.0039C10.6322 87.859 16.2526 85.5276 22.115 85.521H31.915C37.7767 85.5279 43.3964 87.8596 47.5412 92.0045C51.686 96.1495 54.0174 101.769 54.024 107.631V188.251C54.015 194.111 51.6824 199.729 47.5376 203.872C43.3928 208.015 37.7743 210.345 31.914 210.351M22.114 96.417C19.1408 96.4202 16.2904 97.6027 14.188 99.705C12.0857 101.807 10.9032 104.658 10.9 107.631V188.251C10.9056 191.222 12.0895 194.07 14.1922 196.17C16.2949 198.27 19.1445 199.45 22.116 199.451H31.916C34.8868 199.449 37.7355 198.269 39.8371 196.169C41.9387 194.069 43.1215 191.222 43.126 188.251V107.631C43.1231 104.659 41.9411 101.809 39.8395 99.7075C37.7378 97.6059 34.8882 96.4239 31.916 96.421L22.114 96.417Z" fill="white"/>
<path d="M170.178 207.017H160.378C154.514 207.012 148.893 204.68 144.747 200.534C140.601 196.388 138.269 190.766 138.264 184.903V104.293C138.27 98.4312 140.602 92.8113 144.747 88.6663C148.892 84.5213 154.512 82.1897 160.374 82.1831H170.174C176.034 82.1913 181.652 84.5237 185.795 88.6686C189.938 92.8136 192.268 98.4326 192.274 104.293V184.903C192.268 190.764 189.938 196.383 185.795 200.528C181.652 204.673 176.034 207.005 170.174 207.013M160.374 93.0831C157.402 93.0871 154.553 94.2694 152.451 96.3708C150.35 98.4722 149.168 101.321 149.164 104.293V184.903C149.168 187.875 150.35 190.724 152.451 192.825C154.553 194.927 157.402 196.109 160.374 196.113H170.174C173.144 196.108 175.991 194.925 178.091 192.823C180.19 190.722 181.371 187.874 181.374 184.903V104.293C181.371 101.323 180.19 98.4743 178.091 96.3729C175.991 94.2715 173.144 93.0884 170.174 93.0831H160.374Z" fill="white"/>
<path d="M99.8368 73.9539H90.0368C84.1749 73.9473 78.5549 71.6158 74.4099 67.4708C70.2649 63.3258 67.9334 57.7059 67.9268 51.8439V40.1539C67.9334 34.292 70.2649 28.6721 74.4099 24.5271C78.5549 20.3821 84.1749 18.0506 90.0368 18.0439H99.8368C105.697 18.0522 111.315 20.3845 115.458 24.5295C119.601 28.6744 121.931 34.2934 121.937 40.1539V51.8439C121.931 57.7044 119.601 63.3235 115.458 67.4684C111.315 71.6133 105.697 73.9457 99.8368 73.9539ZM90.0368 28.9439C87.0649 28.9479 84.2159 30.1302 82.1145 32.2317C80.0131 34.3331 78.8307 37.1821 78.8268 40.1539V51.8439C78.8307 54.8158 80.0131 57.6648 82.1145 59.7662C84.2159 61.8677 87.0649 63.05 90.0368 63.0539H99.8368C102.808 63.0494 105.655 61.8666 107.755 59.765C109.855 57.6634 111.035 54.8147 111.037 51.8439V40.1539C111.035 37.1832 109.855 34.3345 107.755 32.2329C105.655 30.1313 102.808 28.9484 99.8368 28.9439H90.0368Z" fill="white"/>
<path d="M99.8368 210.358H90.0368C84.1749 210.351 78.5549 208.02 74.4099 203.875C70.2649 199.73 67.9334 194.11 67.9268 188.248V104.293C67.9334 98.4312 70.2649 92.8113 74.4099 88.6663C78.5549 84.5213 84.1749 82.1897 90.0368 82.1831H99.8368C105.697 82.1913 111.315 84.5237 115.458 88.6686C119.601 92.8136 121.931 98.4326 121.937 104.293V188.248C121.931 194.109 119.601 199.728 115.458 203.873C111.315 208.017 105.697 210.35 99.8368 210.358ZM90.0378 93.0831C87.0659 93.0871 84.2169 94.2694 82.1155 96.3708C80.0141 98.4722 78.8317 101.321 78.8278 104.293V188.248C78.8307 191.22 80.0127 194.07 82.1143 196.172C84.216 198.273 87.0656 199.455 90.0378 199.458H99.8378C102.809 199.455 105.657 198.272 107.757 196.17C109.857 194.069 111.037 191.219 111.038 188.248V104.293C111.036 101.322 109.856 98.4736 107.756 96.372C105.656 94.2704 102.809 93.0876 99.8378 93.0831H90.0378Z" fill="white"/>
</svg>
