<svg width="432" height="256" viewBox="0 0 432 256" fill="none" xmlns="http://www.w3.org/2000/svg">
<path d="M431.52 148.096C431.522 169.385 425.21 190.197 413.383 207.899C401.556 225.601 384.745 239.399 365.077 247.547C345.408 255.695 323.765 257.827 302.885 253.674C282.004 249.521 262.824 239.27 247.77 224.216C232.716 209.162 222.464 189.983 218.311 169.102C214.157 148.222 216.289 126.579 224.436 106.91C232.584 87.2413 246.381 70.4302 264.082 58.6029C281.784 46.7755 302.596 40.4631 323.885 40.4639C352.431 40.4639 379.808 51.8035 399.994 71.9884C420.179 92.1732 431.519 119.55 431.52 148.096Z" fill="#979B8A"/>
<path d="M366.317 208.879H259.555C248.07 208.866 237.06 204.297 228.939 196.175C220.819 188.054 216.252 177.042 216.241 165.557V28.3212C216.165 25.3594 217.011 22.4471 218.663 19.9878C220.316 17.5285 222.692 15.6439 225.463 14.5952C228.514 13.5061 231.823 13.3631 234.957 14.1851C238.091 15.0071 240.903 16.7557 243.027 19.2022C251.248 28.4422 264.736 48.8022 262.518 81.4402C262.442 82.5625 262.145 83.6588 261.645 84.6665C261.144 85.6741 260.451 86.5733 259.603 87.3129C258.755 88.0524 257.77 88.6177 256.704 88.9765C255.638 89.3354 254.511 89.4807 253.389 89.4042C252.267 89.3277 251.17 89.0309 250.163 88.5307C249.155 88.0305 248.256 87.3368 247.516 86.4891C246.777 85.6414 246.212 84.6563 245.853 83.5901C245.494 82.524 245.349 81.3975 245.425 80.2752C246.963 57.8652 239.568 42.8962 233.368 34.4612V165.561C233.373 172.506 236.134 179.165 241.043 184.077C245.953 188.989 252.61 191.752 259.555 191.761H366.317C373.264 191.755 379.925 188.993 384.837 184.081C389.749 179.169 392.511 172.508 392.517 165.561V44.6522C392.511 37.7053 389.749 31.0446 384.837 26.1324C379.925 21.2202 373.264 18.458 366.317 18.4522H268.547C266.276 18.4522 264.098 17.55 262.492 15.944C260.886 14.338 259.984 12.1599 259.984 9.8887C259.984 7.61752 260.886 5.43936 262.492 3.83339C264.098 2.22742 266.276 1.3252 268.547 1.3252H366.317C377.803 1.33816 388.815 5.90656 396.936 14.0282C405.058 22.1498 409.627 33.1614 409.64 44.6472V165.557C409.627 177.043 405.058 188.055 396.936 196.176C388.815 204.298 377.803 208.866 366.317 208.879Z" fill="white"/>
<path d="M150.081 207.551H43.3186C31.8338 207.537 20.8233 202.969 12.7031 194.847C4.58283 186.725 0.0160072 175.714 0.00462694 164.229V26.994C-0.0707852 24.0311 0.777233 21.118 2.43118 18.6585C4.08513 16.199 6.46311 14.3148 9.23563 13.267C12.2857 12.1807 15.5925 12.0392 18.7242 12.8611C21.8559 13.683 24.667 15.43 26.7906 17.874C35.0116 27.114 48.4996 47.486 46.2816 80.121C46.2192 81.2486 45.9314 82.3523 45.4352 83.3668C44.9391 84.3814 44.2446 85.2862 43.3928 86.0277C42.541 86.7693 41.5493 87.3327 40.4761 87.6845C39.4029 88.0363 38.2701 88.1694 37.1446 88.076C34.8804 87.9211 32.7704 86.8733 31.2785 85.1631C29.7866 83.4529 29.0349 81.2203 29.1886 78.956C30.7216 56.546 23.3316 41.569 17.1316 33.134V164.234C17.1369 171.179 19.8972 177.838 24.8067 182.75C29.7162 187.662 36.3738 190.425 43.3186 190.434H150.081C157.028 190.428 163.688 187.666 168.6 182.754C173.513 177.842 176.275 171.181 176.281 164.234V43.324C176.275 36.3771 173.513 29.7164 168.6 24.8042C163.688 19.892 157.028 17.1298 150.081 17.124H52.3106C51.1708 17.1486 50.0375 16.9454 48.9773 16.5263C47.9171 16.1071 46.9512 15.4804 46.1364 14.683C45.3216 13.8856 44.6742 12.9335 44.2322 11.8826C43.7902 10.8317 43.5626 9.70308 43.5626 8.563C43.5626 7.42292 43.7902 6.29431 44.2322 5.24338C44.6742 4.19246 45.3216 3.24037 46.1364 2.44297C46.9512 1.64556 47.9171 1.0189 48.9773 0.599742C50.0375 0.180582 51.1708 -0.0226392 52.3106 0.00200014H150.081C161.566 0.0162891 172.577 4.58511 180.698 12.7064C188.82 20.8278 193.389 31.8386 193.404 43.324V164.229C193.39 175.715 188.822 186.726 180.7 194.848C172.578 202.97 161.566 207.538 150.081 207.551Z" fill="white"/>
<path d="M94.3594 173.139L49.4004 117.298C47.9776 115.527 47.3163 113.264 47.562 111.006C47.8078 108.748 48.9405 106.68 50.7109 105.257C52.4814 103.834 54.7446 103.173 57.0026 103.419C59.2606 103.665 61.3286 104.797 62.7514 106.568L92.4854 143.502L139.485 67.1338C140.07 66.1684 140.84 65.3283 141.751 64.6617C142.662 63.9951 143.696 63.5153 144.793 63.2499C145.89 62.9844 147.029 62.9385 148.144 63.1149C149.259 63.2913 150.328 63.6865 151.289 64.2776C152.251 64.8688 153.086 65.6443 153.747 66.5595C154.408 67.4747 154.881 68.5115 155.139 69.6103C155.397 70.7091 155.436 71.8482 155.252 72.9619C155.069 74.0756 154.667 75.142 154.069 76.0998L94.3594 173.139Z" fill="white"/>
</svg>
