<svg width="194" height="202" viewBox="0 0 194 202" fill="none" xmlns="http://www.w3.org/2000/svg">
<path d="M175.76 113.875C175.761 131.256 170.608 148.248 160.952 162.7C151.296 177.153 137.571 188.417 121.513 195.069C105.455 201.721 87.7849 203.462 70.7375 200.072C53.69 196.681 38.0308 188.312 25.7402 176.021C13.4496 163.731 5.07956 148.072 1.68863 131.025C-1.70231 113.977 0.038147 96.3071 6.68989 80.2489C13.3416 64.1906 24.6059 50.4656 39.0582 40.8093C53.5105 31.1531 70.5017 25.9994 87.883 26C111.189 26 133.541 35.2582 150.021 51.7379C166.501 68.2176 175.76 90.5689 175.76 113.875Z" fill="#979B8A"/>
<path d="M156.555 154.483H71.9915C71.139 154.483 70.2949 154.315 69.5073 153.989C68.7197 153.663 68.0041 153.184 67.4013 152.582C66.7985 151.979 66.3204 151.263 65.9941 150.476C65.6679 149.688 65.5 148.844 65.5 147.991C65.5 147.139 65.6679 146.295 65.9941 145.507C66.3204 144.72 66.7985 144.004 67.4013 143.401C68.0041 142.799 68.7197 142.32 69.5073 141.994C70.2949 141.668 71.139 141.5 71.9915 141.5H156.555C157.407 141.5 158.251 141.668 159.039 141.994C159.826 142.32 160.542 142.799 161.145 143.401C161.747 144.004 162.226 144.72 162.552 145.507C162.878 146.295 163.046 147.139 163.046 147.991C163.046 148.844 162.878 149.688 162.552 150.476C162.226 151.263 161.747 151.979 161.145 152.582C160.542 153.184 159.826 153.663 159.039 153.989C158.251 154.315 157.407 154.483 156.555 154.483Z" fill="white" stroke="white"/>
<path d="M156.555 135.483H71.9915C71.139 135.483 70.2949 135.315 69.5073 134.989C68.7197 134.663 68.0041 134.184 67.4013 133.582C66.7985 132.979 66.3204 132.263 65.9941 131.476C65.6679 130.688 65.5 129.844 65.5 128.991C65.5 128.139 65.6679 127.295 65.9941 126.507C66.3204 125.72 66.7985 125.004 67.4013 124.401C68.0041 123.799 68.7197 123.32 69.5073 122.994C70.2949 122.668 71.139 122.5 71.9915 122.5H156.555C157.407 122.5 158.251 122.668 159.039 122.994C159.826 123.32 160.542 123.799 161.145 124.401C161.747 125.004 162.226 125.72 162.552 126.507C162.878 127.295 163.046 128.139 163.046 128.991C163.046 129.844 162.878 130.688 162.552 131.476C162.226 132.263 161.747 132.979 161.145 133.582C160.542 134.184 159.826 134.663 159.039 134.989C158.251 135.315 157.407 135.483 156.555 135.483Z" fill="white" stroke="white"/>
<path d="M156.555 116.483H71.9915C71.139 116.483 70.2949 116.315 69.5073 115.989C68.7197 115.663 68.0041 115.184 67.4013 114.582C66.7985 113.979 66.3204 113.263 65.9941 112.476C65.6679 111.688 65.5 110.844 65.5 109.991C65.5 109.139 65.6679 108.295 65.9941 107.507C66.3204 106.72 66.7985 106.004 67.4013 105.401C68.0041 104.799 68.7197 104.32 69.5073 103.994C70.2949 103.668 71.139 103.5 71.9915 103.5H156.555C157.407 103.5 158.251 103.668 159.039 103.994C159.826 104.32 160.542 104.799 161.145 105.401C161.747 106.004 162.226 106.72 162.552 107.507C162.878 108.295 163.046 109.139 163.046 109.991C163.046 110.844 162.878 111.688 162.552 112.476C162.226 113.263 161.747 113.979 161.145 114.582C160.542 115.184 159.826 115.663 159.039 115.989C158.251 116.315 157.407 116.483 156.555 116.483Z" fill="white" stroke="white"/>
<mask id="path-5-inside-1_1225_39" fill="white">
<path d="M158.512 183.983H71.3485C61.9709 183.974 52.9801 180.244 46.349 173.613C39.7179 166.983 35.9883 157.992 35.9785 148.614V36.5682C35.9161 34.1499 36.6074 31.772 37.9565 29.7641C39.3057 27.7561 41.2459 26.2174 43.5085 25.3612C45.9996 24.4724 48.701 24.3559 51.2594 25.0269C53.8178 25.6979 56.1142 27.1252 57.8485 29.1222C64.5605 36.6592 75.5795 53.2772 73.7615 79.9352C73.7223 80.8595 73.4954 81.7662 73.0947 82.6C72.694 83.4338 72.1278 84.1774 71.4306 84.7855C70.7334 85.3935 69.9197 85.8534 69.0392 86.137C68.1586 86.4206 67.2295 86.5221 66.3085 86.4352C64.4589 86.307 62.7358 85.4502 61.5172 84.053C60.2986 82.6557 59.6841 80.8321 59.8085 78.9822C61.0595 60.6722 55.0265 48.4582 49.9645 41.5822V148.614C49.9703 154.285 52.2255 159.721 56.235 163.731C60.2446 167.74 65.6811 169.995 71.3515 170.001H158.515C164.186 169.995 169.622 167.74 173.632 163.731C177.642 159.721 179.897 154.285 179.902 148.614V49.9022C179.897 44.2318 177.642 38.7953 173.632 34.7858C169.622 30.7762 164.186 28.5211 158.515 28.5152L149 28.5153C148.082 28.5153 147.173 28.3345 146.324 27.9831C145.476 27.6318 144.705 27.1168 144.056 26.4676C143.407 25.8183 142.892 25.0476 142.541 24.1993C142.189 23.3511 142.008 22.442 142.008 21.5238C142.008 20.6057 142.189 19.6965 142.541 18.8483C142.892 18 143.407 17.2293 144.056 16.5801C144.705 15.9309 145.476 15.4159 146.324 15.0645C147.173 14.7132 148.082 14.5323 149 14.5323L158.512 14.5322C167.89 14.5428 176.88 18.2725 183.511 24.9032C190.142 31.5339 193.872 40.524 193.882 49.9012V148.612C193.872 157.99 190.142 166.98 183.511 173.61C176.88 180.241 167.89 183.971 158.512 183.981"/>
</mask>
<path d="M158.512 183.983H71.3485C61.9709 183.974 52.9801 180.244 46.349 173.613C39.7179 166.983 35.9883 157.992 35.9785 148.614V36.5682C35.9161 34.1499 36.6074 31.772 37.9565 29.7641C39.3057 27.7561 41.2459 26.2174 43.5085 25.3612C45.9996 24.4724 48.701 24.3559 51.2594 25.0269C53.8178 25.6979 56.1142 27.1252 57.8485 29.1222C64.5605 36.6592 75.5795 53.2772 73.7615 79.9352C73.7223 80.8595 73.4954 81.7662 73.0947 82.6C72.694 83.4338 72.1278 84.1774 71.4306 84.7855C70.7334 85.3935 69.9197 85.8534 69.0392 86.137C68.1586 86.4206 67.2295 86.5221 66.3085 86.4352C64.4589 86.307 62.7358 85.4502 61.5172 84.053C60.2986 82.6557 59.6841 80.8321 59.8085 78.9822C61.0595 60.6722 55.0265 48.4582 49.9645 41.5822V148.614C49.9703 154.285 52.2255 159.721 56.235 163.731C60.2446 167.74 65.6811 169.995 71.3515 170.001H158.515C164.186 169.995 169.622 167.74 173.632 163.731C177.642 159.721 179.897 154.285 179.902 148.614V49.9022C179.897 44.2318 177.642 38.7953 173.632 34.7858C169.622 30.7762 164.186 28.5211 158.515 28.5152L149 28.5153C148.082 28.5153 147.173 28.3345 146.324 27.9831C145.476 27.6318 144.705 27.1168 144.056 26.4676C143.407 25.8183 142.892 25.0476 142.541 24.1993C142.189 23.3511 142.008 22.442 142.008 21.5238C142.008 20.6057 142.189 19.6965 142.541 18.8483C142.892 18 143.407 17.2293 144.056 16.5801C144.705 15.9309 145.476 15.4159 146.324 15.0645C147.173 14.7132 148.082 14.5323 149 14.5323L158.512 14.5322C167.89 14.5428 176.88 18.2725 183.511 24.9032C190.142 31.5339 193.872 40.524 193.882 49.9012V148.612C193.872 157.99 190.142 166.98 183.511 173.61C176.88 180.241 167.89 183.971 158.512 183.981" fill="white"/>
<path d="M71.3485 183.983L71.3475 184.983H71.3485V183.983ZM35.9785 148.614L34.9785 148.614L34.9785 148.615L35.9785 148.614ZM35.9785 36.5682H36.9785V36.5553L36.9782 36.5424L35.9785 36.5682ZM43.5085 25.3612L43.1724 24.4194L43.1635 24.4226L43.1546 24.426L43.5085 25.3612ZM57.8485 29.1222L57.0934 29.778L57.1017 29.7873L57.8485 29.1222ZM73.7615 79.9352L72.7638 79.8672L72.7629 79.88L72.7624 79.8929L73.7615 79.9352ZM66.3085 86.4352L66.4024 85.4397L66.39 85.4385L66.3777 85.4376L66.3085 86.4352ZM59.8085 78.9822L58.8108 78.9141L58.8107 78.9151L59.8085 78.9822ZM49.9645 41.5822L50.7698 40.9894L48.9645 38.5371V41.5822H49.9645ZM49.9645 148.614L48.9645 148.614L48.9645 148.615L49.9645 148.614ZM71.3515 170.001L71.3505 171.001H71.3515V170.001ZM158.515 170.001L158.515 171.001L158.517 171.001L158.515 170.001ZM179.902 148.614L180.902 148.615V148.614H179.902ZM179.902 49.9022L180.902 49.9022L180.902 49.9012L179.902 49.9022ZM158.515 28.5152L158.517 27.5152L158.515 27.5152L158.515 28.5152ZM149 28.5153L149 29.5153L149 29.5153L149 28.5153ZM149 14.5323L149 15.5323L149 15.5323L149 14.5323ZM158.512 14.5322L158.514 13.5322L158.512 13.5322L158.512 14.5322ZM193.882 49.9012L194.882 49.9012L194.882 49.9001L193.882 49.9012ZM193.882 148.612L194.882 148.613V148.612H193.882ZM158.512 182.983H71.3485V184.983H158.512V182.983ZM71.3495 182.983C62.2368 182.974 53.4999 179.35 47.0561 172.906L45.6419 174.321C52.4603 181.139 61.705 184.973 71.3475 184.983L71.3495 182.983ZM47.0561 172.906C40.6123 166.463 36.988 157.726 36.9785 148.613L34.9785 148.615C34.9886 158.258 38.8236 167.502 45.6419 174.321L47.0561 172.906ZM36.9785 148.614V36.5682H34.9785V148.614H36.9785ZM36.9782 36.5424C36.9211 34.3315 37.5531 32.1575 38.7866 30.3218L37.1265 29.2064C35.6616 31.3865 34.9111 33.9683 34.9788 36.594L36.9782 36.5424ZM38.7866 30.3218C40.02 28.486 41.7939 27.0793 43.8624 26.2965L43.1546 24.426C40.698 25.3556 38.5913 27.0262 37.1265 29.2064L38.7866 30.3218ZM43.8445 26.3031C46.1461 25.4819 48.6419 25.3742 51.0057 25.9942L51.5131 24.0596C48.76 23.3376 45.8531 23.4629 43.1724 24.4194L43.8445 26.3031ZM51.0057 25.9942C53.3694 26.6141 55.4912 27.9328 57.0935 29.7779L58.6035 28.4665C56.7373 26.3176 54.2661 24.7817 51.5131 24.0596L51.0057 25.9942ZM57.1017 29.7873C63.6862 37.1811 74.5589 53.5455 72.7638 79.8672L74.7592 80.0033C76.6001 53.009 65.4348 36.1374 58.5953 28.4572L57.1017 29.7873ZM72.7624 79.8929C72.7289 80.6816 72.5354 81.4553 72.1934 82.1669L73.996 83.0332C74.4555 82.0771 74.7157 81.0374 74.7606 79.9776L72.7624 79.8929ZM72.1934 82.1669C71.8514 82.8784 71.3683 83.513 70.7733 84.0318L72.0879 85.5391C72.8873 84.8419 73.5366 83.9893 73.996 83.0332L72.1934 82.1669ZM70.7733 84.0318C70.1784 84.5507 69.484 84.9431 68.7326 85.1852L69.3457 87.0888C70.3555 86.7636 71.2884 86.2364 72.0879 85.5391L70.7733 84.0318ZM68.7326 85.1852C67.9812 85.4272 67.1883 85.5138 66.4024 85.4397L66.2146 87.4308C67.2707 87.5304 68.336 87.4141 69.3457 87.0888L68.7326 85.1852ZM66.3777 85.4376C64.7923 85.3277 63.3153 84.5933 62.2708 83.3957L60.7635 84.7103C62.1562 86.3071 64.1255 87.2863 66.2393 87.4329L66.3777 85.4376ZM62.2708 83.3957C61.2263 82.198 60.6996 80.6349 60.8062 79.0494L58.8107 78.9151C58.6685 81.0292 59.3708 83.1134 60.7635 84.7103L62.2708 83.3957ZM60.8062 79.0504C62.0758 60.468 55.949 48.0246 50.7698 40.9894L49.1592 42.1751C54.104 48.8919 60.0432 60.8765 58.8108 78.9141L60.8062 79.0504ZM48.9645 41.5822V148.614H50.9645V41.5822H48.9645ZM48.9645 148.615C48.9706 154.551 51.3311 160.241 55.5279 164.438L56.9421 163.024C53.1198 159.201 50.97 154.019 50.9645 148.613L48.9645 148.615ZM55.5279 164.438C59.7248 168.635 65.4152 170.995 71.3505 171.001L71.3525 169.001C65.947 168.996 60.7644 166.846 56.9421 163.024L55.5279 164.438ZM71.3515 171.001H158.515V169.001H71.3515V171.001ZM158.517 171.001C164.452 170.995 170.142 168.635 174.339 164.438L172.925 163.024C169.103 166.846 163.92 168.996 158.514 169.001L158.517 171.001ZM174.339 164.438C178.536 160.241 180.896 154.551 180.902 148.615L178.902 148.613C178.897 154.019 176.747 159.201 172.925 163.024L174.339 164.438ZM180.902 148.614V49.9022H178.902V148.614H180.902ZM180.902 49.9012C180.896 43.966 178.536 38.2755 174.339 34.0787L172.925 35.4929C176.747 39.3152 178.897 44.4977 178.902 49.9033L180.902 49.9012ZM174.339 34.0787C170.142 29.8818 164.452 27.5213 158.517 27.5152L158.514 29.5152C163.92 29.5208 169.103 31.6706 172.925 35.4929L174.339 34.0787ZM158.515 27.5152L149 27.5153L149 29.5153L158.515 29.5152L158.515 27.5152ZM149 27.5153C148.213 27.5153 147.434 27.3603 146.707 27.0592L145.942 28.907C146.911 29.3086 147.951 29.5153 149 29.5153L149 27.5153ZM146.707 27.0592C145.98 26.7581 145.32 26.3168 144.763 25.7604L143.349 27.1747C144.091 27.9167 144.972 28.5054 145.942 28.907L146.707 27.0592ZM144.763 25.7604C144.207 25.2041 143.766 24.5436 143.465 23.8167L141.617 24.582C142.018 25.5516 142.607 26.4326 143.349 27.1747L144.763 25.7604ZM143.465 23.8167C143.163 23.0897 143.008 22.3106 143.008 21.5238H141.008C141.008 22.5733 141.215 23.6125 141.617 24.582L143.465 23.8167ZM143.008 21.5238C143.008 20.737 143.163 19.9579 143.465 19.231L141.617 18.4656C141.215 19.4352 141.008 20.4744 141.008 21.5238H143.008ZM143.465 19.231C143.766 18.504 144.207 17.8435 144.763 17.2872L143.349 15.873C142.607 16.6151 142.018 17.496 141.617 18.4656L143.465 19.231ZM144.763 17.2872C145.32 16.7308 145.98 16.2895 146.707 15.9884L145.942 14.1406C144.972 14.5422 144.091 15.1309 143.349 15.873L144.763 17.2872ZM146.707 15.9884C147.434 15.6873 148.213 15.5323 149 15.5323L149 13.5323C147.951 13.5323 146.911 13.739 145.942 14.1406L146.707 15.9884ZM149 15.5323L158.512 15.5322L158.512 13.5322L149 13.5323L149 15.5323ZM158.511 15.5322C167.624 15.5425 176.36 19.1669 182.804 25.6103L184.218 24.1961C177.4 17.3782 168.156 13.5431 158.514 13.5322L158.511 15.5322ZM182.804 25.6103C189.247 32.0537 192.872 40.7899 192.882 49.9024L194.882 49.9001C194.871 40.258 191.036 31.014 184.218 24.1961L182.804 25.6103ZM192.882 49.9012V148.612H194.882V49.9012H192.882ZM192.882 148.611C192.872 157.724 189.247 166.46 182.804 172.903L184.218 174.317C191.036 167.499 194.871 158.256 194.882 148.613L192.882 148.611ZM182.804 172.903C176.36 179.347 167.624 182.971 158.511 182.981L158.514 184.981C168.156 184.97 177.4 181.135 184.218 174.317L182.804 172.903Z" fill="white" mask="url(#path-5-inside-1_1225_39)"/>
<circle cx="114" cy="20" r="14" stroke="white" stroke-width="12"/>
<path d="M81 43L150 43" stroke="white" stroke-width="12" stroke-linecap="round"/>
</svg>
