<svg width="219" height="227" viewBox="0 0 219 227" fill="none" xmlns="http://www.w3.org/2000/svg">
<path d="M182.09 89.8508C182.327 107.857 177.219 125.53 167.412 140.633C157.605 155.737 143.54 167.593 126.994 174.702C110.449 181.812 92.1673 183.855 74.4606 180.574C56.754 177.293 40.4179 168.835 27.5182 156.27C14.6186 143.704 5.73474 127.596 1.99018 109.982C-1.75438 92.3672 -0.191481 74.0379 6.48123 57.3117C13.1539 40.5855 24.6368 26.2137 39.4776 16.0137C54.3184 5.81365 71.8506 0.243574 89.8571 0.00783788C114.002 -0.308788 137.283 8.97884 154.58 25.8276C171.877 42.6764 181.773 65.7062 182.09 89.8508Z" fill="#697A6C"/>
<path d="M90.7585 131.585C79.0175 131.54 67.7618 126.895 59.4068 118.646C51.0518 110.397 46.2631 99.2015 46.0685 87.462L46.0175 83.814C45.8619 71.9572 50.4226 60.5241 58.6965 52.0299C66.9704 43.5356 78.2797 38.676 90.1365 38.52H90.1475C115.072 38.52 135.118 58.311 135.439 82.638L135.482 86.293C135.624 98.1461 131.058 109.572 122.787 118.063C114.515 126.554 103.213 131.417 91.3605 131.585H90.7585ZM90.7385 44.516C85.6112 44.5143 80.5347 45.5311 75.8036 47.5075C71.0725 49.4839 66.7812 52.3804 63.1788 56.029C59.5764 59.6775 56.7347 64.0054 54.8187 68.7612C52.9026 73.5171 51.9505 78.6062 52.0175 83.733L52.0685 87.385C52.2372 97.5484 56.383 107.241 63.6162 114.382C70.8494 121.524 80.5938 125.546 90.7585 125.585V128.585L91.2805 125.585C101.542 125.439 111.328 121.229 118.489 113.878C125.65 106.526 129.603 96.6343 129.481 86.372L129.438 82.717C129.266 72.5528 125.118 62.8605 117.884 55.719C110.649 48.5775 100.904 44.5557 90.7385 44.516Z" fill="white"/>
<mask id="path-3-inside-1_24_432" fill="white">
<path d="M192.014 221.975C188.885 221.972 185.79 221.32 182.926 220.061C180.061 218.801 177.489 216.961 175.373 214.656L115.36 149.204C113.344 147.022 111.778 144.463 110.754 141.674C109.729 138.885 109.265 135.921 109.389 132.953C109.512 129.984 110.22 127.069 111.473 124.375C112.726 121.681 114.498 119.261 116.688 117.253C118.878 115.246 121.443 113.69 124.236 112.676C127.029 111.662 129.994 111.21 132.962 111.345C135.93 111.479 138.842 112.199 141.532 113.462C144.221 114.725 146.634 116.506 148.634 118.704L208.647 184.156C211.606 187.385 213.563 191.405 214.277 195.727C214.991 200.048 214.433 204.484 212.669 208.493C210.906 212.503 208.014 215.913 204.346 218.307C200.678 220.701 196.393 221.976 192.013 221.976L192.014 221.975ZM131.994 117.384C128.778 117.385 125.632 118.321 122.94 120.079C120.247 121.836 118.124 124.339 116.83 127.283C115.535 130.226 115.125 133.483 115.649 136.655C116.174 139.827 117.61 142.779 119.783 145.149L179.796 210.602C181.266 212.206 183.038 213.505 185.01 214.424C186.982 215.343 189.116 215.865 191.29 215.959C193.464 216.054 195.635 215.719 197.679 214.975C199.724 214.23 201.602 213.09 203.206 211.62C204.81 210.15 206.108 208.378 207.027 206.406C207.947 204.434 208.468 202.3 208.563 200.126C208.658 197.952 208.323 195.781 207.578 193.736C206.834 191.692 205.694 189.814 204.224 188.21L144.207 122.757C142.653 121.066 140.765 119.715 138.663 118.79C136.561 117.866 134.29 117.387 131.994 117.384Z"/>
</mask>
<path d="M192.014 221.975C188.885 221.972 185.79 221.32 182.926 220.061C180.061 218.801 177.489 216.961 175.373 214.656L115.36 149.204C113.344 147.022 111.778 144.463 110.754 141.674C109.729 138.885 109.265 135.921 109.389 132.953C109.512 129.984 110.22 127.069 111.473 124.375C112.726 121.681 114.498 119.261 116.688 117.253C118.878 115.246 121.443 113.69 124.236 112.676C127.029 111.662 129.994 111.21 132.962 111.345C135.93 111.479 138.842 112.199 141.532 113.462C144.221 114.725 146.634 116.506 148.634 118.704L208.647 184.156C211.606 187.385 213.563 191.405 214.277 195.727C214.991 200.048 214.433 204.484 212.669 208.493C210.906 212.503 208.014 215.913 204.346 218.307C200.678 220.701 196.393 221.976 192.013 221.976L192.014 221.975ZM131.994 117.384C128.778 117.385 125.632 118.321 122.94 120.079C120.247 121.836 118.124 124.339 116.83 127.283C115.535 130.226 115.125 133.483 115.649 136.655C116.174 139.827 117.61 142.779 119.783 145.149L179.796 210.602C181.266 212.206 183.038 213.505 185.01 214.424C186.982 215.343 189.116 215.865 191.29 215.959C193.464 216.054 195.635 215.719 197.679 214.975C199.724 214.23 201.602 213.09 203.206 211.62C204.81 210.15 206.108 208.378 207.027 206.406C207.947 204.434 208.468 202.3 208.563 200.126C208.658 197.952 208.323 195.781 207.578 193.736C206.834 191.692 205.694 189.814 204.224 188.21L144.207 122.757C142.653 121.066 140.765 119.715 138.663 118.79C136.561 117.866 134.29 117.387 131.994 117.384Z" fill="white"/>
<path d="M192.014 221.975L248.582 278.544L384.977 142.149L192.086 141.975L192.014 221.975ZM175.373 214.656L116.407 268.722L116.432 268.749L116.457 268.776L175.373 214.656ZM115.36 149.204L174.325 95.1386L174.225 95.0299L174.125 94.9215L115.36 149.204ZM148.634 118.704L89.4534 172.534L89.5605 172.652L89.6682 172.77L148.634 118.704ZM208.647 184.156L267.617 130.096L267.612 130.091L208.647 184.156ZM192.013 221.976L135.444 165.408L-1.14421 301.996L192.021 301.976L192.013 221.976ZM131.994 117.384L132.085 37.3841L132.032 37.3841L131.979 37.3841L131.994 117.384ZM119.783 145.149L60.8099 199.207L60.8168 199.214L119.783 145.149ZM179.796 210.602L238.768 156.545L238.761 156.537L179.796 210.602ZM204.224 188.21L263.196 134.153L263.188 134.143L204.224 188.21ZM144.207 122.757L203.171 68.6901L203.146 68.6628L203.121 68.6355L144.207 122.757ZM192.086 141.975C200.022 141.982 207.869 143.636 215.134 146.83L150.718 293.291C163.711 299.005 177.747 301.962 191.941 301.975L192.086 141.975ZM215.134 146.83C222.398 150.025 228.92 154.692 234.289 160.537L116.457 268.776C126.059 279.229 137.725 287.576 150.718 293.291L215.134 146.83ZM234.338 160.591L174.325 95.1386L56.3942 203.27L116.407 268.722L234.338 160.591ZM174.125 94.9215C179.255 100.475 183.238 106.987 185.846 114.084L35.6619 169.264C40.3186 181.938 47.432 193.568 56.594 203.487L174.125 94.9215ZM185.846 114.084C188.453 121.18 189.634 128.722 189.32 136.276L29.4577 129.63C28.8968 143.121 31.0052 156.59 35.6619 169.264L185.846 114.084ZM189.32 136.276C189.006 143.83 187.203 151.248 184.016 158.103L38.9305 90.6471C33.2378 102.891 30.0186 116.139 29.4577 129.63L189.32 136.276ZM184.016 158.103C180.828 164.959 176.318 171.118 170.745 176.227L62.6312 58.2798C52.6775 67.4037 44.6232 78.4032 38.9305 90.6471L184.016 158.103ZM170.745 176.227C165.172 181.335 158.644 185.293 151.538 187.873L96.9342 37.4791C84.2422 42.0872 72.5849 49.1559 62.6312 58.2798L170.745 176.227ZM151.538 187.873C144.431 190.454 136.885 191.605 129.332 191.262L136.592 31.4269C123.103 30.8143 109.626 32.871 96.9342 37.4791L151.538 187.873ZM129.332 191.262C121.78 190.919 114.369 189.088 107.526 185.874L175.538 41.0492C163.316 35.3095 150.081 32.0396 136.592 31.4269L129.332 191.262ZM107.526 185.874C100.682 182.661 94.5407 178.127 89.4534 172.534L207.814 64.8738C198.728 54.8852 187.76 46.7888 175.538 41.0492L107.526 185.874ZM89.6682 172.77L149.681 238.222L267.612 130.091L207.599 64.6386L89.6682 172.77ZM149.676 238.216C142.144 230 137.166 219.77 135.348 208.773L293.206 182.68C289.96 163.04 281.069 144.77 267.617 130.096L149.676 238.216ZM135.348 208.773C133.53 197.776 134.952 186.488 139.439 176.285L285.899 240.701C293.914 222.48 296.453 202.32 293.206 182.68L135.348 208.773ZM139.439 176.285C143.927 166.083 151.286 157.406 160.62 151.314L248.072 285.299C264.742 274.419 277.885 258.923 285.899 240.701L139.439 176.285ZM160.62 151.314C169.954 145.222 180.858 141.977 192.004 141.976L192.021 301.976C211.927 301.974 231.403 296.18 248.072 285.299L160.62 151.314ZM248.581 278.545L248.582 278.544L135.445 165.407L135.444 165.408L248.581 278.545ZM131.979 37.3841C113.238 37.3875 94.9036 42.8438 79.2103 53.0879L166.669 187.069C156.361 193.798 144.318 197.382 132.008 197.384L131.979 37.3841ZM79.2103 53.0879C63.5171 63.3319 51.1437 77.921 43.599 95.076L190.06 159.489C185.105 170.758 176.977 180.34 166.669 187.069L79.2103 53.0879ZM43.599 95.076C36.0542 112.231 33.6642 131.211 36.7202 149.701L194.579 123.609C196.586 135.754 195.016 148.221 190.06 159.489L43.599 95.076ZM36.7202 149.701C39.7763 168.191 48.1464 185.392 60.8099 199.207L178.755 91.0915C187.073 100.166 192.571 111.464 194.579 123.609L36.7202 149.701ZM60.8168 199.214L120.83 264.667L238.761 156.537L178.748 91.0841L60.8168 199.214ZM120.823 264.66C129.392 274.008 139.719 281.577 151.213 286.934L218.807 141.913C226.357 145.432 233.14 150.404 238.768 156.545L120.823 264.66ZM151.213 286.934C162.707 292.292 175.144 295.333 187.814 295.884L194.765 136.035C203.087 136.397 211.257 138.394 218.807 141.913L151.213 286.934ZM187.814 295.884C200.484 296.435 213.138 294.485 225.054 290.146L170.305 139.804C178.132 136.954 186.443 135.673 194.765 136.035L187.814 295.884ZM225.054 290.146C236.97 285.806 247.915 279.162 257.263 270.593L149.148 152.647C155.289 147.019 162.478 142.655 170.305 139.804L225.054 290.146ZM257.263 270.593C266.612 262.024 274.181 251.697 279.538 240.203L134.517 172.609C138.036 165.059 143.008 158.276 149.148 152.647L257.263 270.593ZM279.538 240.203C284.895 228.708 287.937 216.271 288.487 203.602L128.639 196.65C129 188.328 130.998 180.159 134.517 172.609L279.538 240.203ZM288.487 203.602C289.038 190.932 287.089 178.278 282.749 166.362L132.408 221.111C129.557 213.284 128.277 204.972 128.639 196.65L288.487 203.602ZM282.749 166.362C278.41 154.446 271.766 143.501 263.196 134.153L145.251 242.268C139.622 236.127 135.258 228.938 132.408 221.111L282.749 166.362ZM263.188 134.143L203.171 68.6901L85.2426 176.824L145.26 242.277L263.188 134.143ZM203.121 68.6355C194.084 58.7987 183.106 50.9426 170.879 45.5636L106.448 192.017C98.4254 188.488 91.222 183.333 85.2927 176.879L203.121 68.6355ZM170.879 45.5636C158.652 40.1845 145.443 37.3994 132.085 37.3841L131.902 197.384C123.138 197.374 114.47 195.547 106.448 192.017L170.879 45.5636Z" fill="white" mask="url(#path-3-inside-1_24_432)"/>
</svg>
