<svg width="192" height="206" viewBox="0 0 192 206" fill="none" xmlns="http://www.w3.org/2000/svg">
<path d="M191.522 94.5002C191.772 113.44 186.4 132.028 176.086 147.914C165.771 163.8 150.978 176.271 133.575 183.75C116.173 191.228 96.9442 193.378 78.3201 189.928C59.696 186.477 42.5134 177.582 28.9451 164.366C15.3769 151.149 6.03244 134.207 2.09359 115.68C-1.84527 97.1528 -0.201649 77.8739 6.81659 60.2811C13.8348 42.6883 25.9125 27.5718 41.5221 16.8433C57.1318 6.11478 75.5723 0.256124 94.5117 0.00822742C107.086 -0.156611 119.57 2.15695 131.251 6.81681C142.932 11.4767 153.58 18.3916 162.588 27.1667C171.597 35.9419 178.788 46.4054 183.753 57.9599C188.717 69.5143 191.357 81.9335 191.522 94.5082" fill="#979B8A"/>
<path d="M156.321 205.648H36.3022C32.2339 205.649 28.2372 204.578 24.7138 202.545C21.1904 200.511 18.2643 197.586 16.2297 194.063C14.1951 190.54 13.1237 186.543 13.123 182.475C13.1224 178.407 14.1926 174.41 16.2262 170.886L76.2392 66.9394C78.2734 63.4162 81.1992 60.4906 84.7225 58.4565C88.2458 56.4224 92.2424 55.3516 96.3107 55.3516C100.379 55.3516 104.376 56.4224 107.899 58.4565C111.422 60.4906 114.348 63.4162 116.382 66.9394L176.396 170.886C178.43 174.41 179.501 178.407 179.501 182.476C179.501 186.544 178.429 190.541 176.395 194.065C174.36 197.588 171.434 200.514 167.91 202.548C164.386 204.582 160.389 205.652 156.32 205.651M96.3072 70.5864C94.9114 70.5726 93.5374 70.9335 92.3287 71.6317C91.1199 72.3298 90.1207 73.3395 89.4352 74.5554L29.4222 178.502C28.7253 179.71 28.3586 181.079 28.3588 182.473C28.3591 183.867 28.7263 185.236 29.4237 186.443C30.121 187.65 31.1238 188.652 32.3313 189.348C33.5387 190.045 34.9083 190.411 36.3022 190.41H156.321C157.715 190.412 159.085 190.046 160.293 189.349C161.5 188.653 162.503 187.651 163.2 186.443C163.896 185.236 164.263 183.866 164.262 182.472C164.26 181.078 163.892 179.709 163.193 178.502L103.187 74.5584C102.501 73.3413 101.5 72.3308 100.29 71.6326C99.0799 70.9344 97.7043 70.5741 96.3072 70.5894" fill="#3B564D"/>
<path d="M94.3417 156.545C93.341 156.546 92.3502 156.349 91.4257 155.966C90.5012 155.583 89.6612 155.022 88.9536 154.314C88.2461 153.607 87.6849 152.767 87.3021 151.842C86.9193 150.918 86.7224 149.927 86.7227 148.926V100.726C86.7227 98.7057 87.5254 96.7678 88.9542 95.339C90.3831 93.9101 92.321 93.1074 94.3417 93.1074C96.3623 93.1074 98.3003 93.9101 99.7291 95.339C101.158 96.7678 101.961 98.7057 101.961 100.726V148.926C101.961 149.927 101.764 150.918 101.381 151.842C100.998 152.767 100.437 153.607 99.7297 154.314C99.0221 155.022 98.1821 155.583 97.2576 155.966C96.3331 156.349 95.3423 156.546 94.3417 156.545Z" fill="#3B564D"/>
<path d="M95.4647 180.828C93.4409 180.834 91.4967 180.04 90.0557 178.619C88.6493 177.168 87.8576 175.23 87.8457 173.209C87.8564 172.212 88.0636 171.226 88.4557 170.309C88.824 169.377 89.367 168.524 90.0557 167.795C91.1621 166.769 92.5347 166.076 94.0166 165.793C95.4986 165.51 97.0302 165.649 98.4367 166.195C99.3459 166.565 100.174 167.108 100.875 167.795C101.562 168.54 102.127 169.388 102.551 170.309C103.029 171.469 103.213 172.73 103.086 173.978C102.96 175.226 102.527 176.424 101.826 177.465C101.124 178.505 100.177 179.356 99.0672 179.942C97.9576 180.528 96.7205 180.831 95.4657 180.823" fill="#3B564D"/>
</svg>
