<svg width="166" height="166" viewBox="0 0 166 166" fill="none" xmlns="http://www.w3.org/2000/svg">
<path d="M64.559 156.4C32.216 156.4 6 129.445 6 96.2C6 62.955 32.216 36 64.559 36C96.902 36 123.118 62.955 123.118 96.2C123.118 129.445 96.902 156.4 64.559 156.4Z" fill="#979B8A"/>
<path d="M123.389 13.435L151.674 41.7193C155.188 45.234 155.188 50.9325 151.674 54.4472L82.5461 123.575C81.2897 124.831 79.6895 125.688 77.9471 126.036L43.7595 132.874C37.5655 134.112 32.0558 128.752 33.1241 122.526L39.1765 87.2554C39.4912 85.4212 40.3669 83.7296 41.6828 82.4136L110.661 13.435C114.176 9.92031 119.875 9.92031 123.389 13.435Z" stroke="#3B564D" stroke-width="10"/>
<path d="M56.0273 69L56.0272 89.056C56.0272 93.4743 59.6089 97.0561 64.0272 97.0561L73.4321 97.0561C77.7588 97.0561 81.3014 100.496 81.4286 104.821L81.9073 121.098" stroke="#3B564D" stroke-width="10"/>
</svg>
