<svg width="170" height="173" viewBox="0 0 170 173" fill="none" xmlns="http://www.w3.org/2000/svg">
<path d="M128.672 108.334C128.672 121.059 124.899 133.498 117.83 144.078C110.761 154.658 100.713 162.905 88.957 167.774C77.201 172.644 64.265 173.918 51.7848 171.436C39.3046 168.953 27.8409 162.826 18.8433 153.828C9.84562 144.83 3.71825 133.366 1.23601 120.886C-1.24623 108.406 0.0281448 95.47 4.89799 83.7141C9.76783 71.9581 18.0144 61.9103 28.5948 54.8413C39.1753 47.7722 51.6144 43.9994 64.339 44C81.4012 44.0005 97.7644 50.7788 109.829 62.8436C121.894 74.9085 128.672 91.2718 128.672 108.334Z" fill="#979B8A"/>
<path d="M66.5258 111.607L61.5175 99.7037C56.8332 95.0113 51.1046 92.9883 50.6244 86.8365C50.1441 80.6847 52.1232 74.9732 56.1274 70.9546L111.299 15.7834C115.317 11.7776 121.029 9.79722 127.181 10.2767C133.334 10.7563 139.425 13.6565 144.119 18.3412L151.955 26.1779C156.639 30.871 159.539 36.9616 160.017 43.1136C160.496 49.2656 158.515 54.9765 154.509 58.9933L99.3366 114.165C95.3192 118.17 89.6089 120.149 83.458 119.67C77.3071 119.19 71.2178 116.291 66.5258 111.607ZM136.659 25.8008C134.28 23.4249 131.191 21.9538 128.071 21.7103C124.951 21.4668 122.055 22.4706 120.017 24.5017L64.8449 79.6737C62.8145 81.7113 61.8746 83.2007 62.1189 86.32C62.3632 89.4393 66.592 89.1536 68.9681 91.5319L73.9846 104.149C76.3625 106.524 79.4497 107.995 82.5683 108.238C85.6869 108.482 88.5821 107.478 90.6183 105.447L145.79 50.275C147.822 48.2387 148.827 45.3432 148.584 42.224C148.341 39.1048 146.871 36.0167 144.496 33.6375L136.659 25.8008Z" fill="#3B564D"/>
<path d="M36.536 131.823L39.3657 98.8331C39.396 98.4793 39.5094 98.2791 39.6223 98.1455C39.7551 97.9882 39.9617 97.8419 40.2282 97.7584C40.4946 97.6749 40.7479 97.6771 40.9467 97.7304C41.1156 97.7757 41.323 97.8754 41.5498 98.1485C42.4144 99.1896 43.4456 100.08 44.6015 100.784L53.6858 106.313C53.8906 106.438 54.0626 106.61 54.1872 106.815L59.7686 115.984C60.4001 117.022 61.1795 117.961 62.0821 118.774L72.3086 127.982C73.284 128.86 72.7408 130.479 71.4332 130.591L38.1587 133.445C37.2315 133.525 36.4565 132.75 36.536 131.823Z" stroke="#3B564D" stroke-width="11"/>
</svg>
